_Griffith_Gothic-Thin_WebTT.ufo
<glyph name="dollar" format="1">
  <advance width="1095.68"/>
  <unicode hex="0024"/>
  <outline>
    <contour>
      <point x="590" y="801" type="line"/>
      <point x="820.597014925" y="716.671641791"/>
      <point x="1008.0" y="524.76119403"/>
      <point x="1008" y="377" type="qcurve" smooth="yes"/>
      <point x="1008.0" y="197.895522388"/>
      <point x="756.417910448" y="4.9552238806"/>
      <point x="590" y="-4" type="qcurve"/>
      <point x="590" y="-195" type="line"/>
      <point x="516" y="-195" type="line"/>
      <point x="516" y="-2" type="line"/>
      <point x="389.134328358" y="3.97014925373"/>
      <point x="165.820895522" y="101.71641791"/>
      <point x="80" y="195" type="qcurve"/>
      <point x="137" y="258" type="line"/>
      <point x="222.820895522" y="166.208955224"/>
      <point x="403.313432836" y="75.9701492537"/>
      <point x="516" y="70" type="qcurve"/>
      <point x="516" y="743" type="line"/>
      <point x="321.970149254" y="810.910447761"/>
      <point x="127.0" y="991.47761194"/>
      <point x="127" y="1137" type="qcurve" smooth="yes"/>
      <point x="127.0" y="1280.28358209"/>
      <point x="343.611940299" y="1476.01492537"/>
      <point x="516" y="1479" type="qcurve"/>
      <point x="516" y="1561" type="line"/>
      <point x="590" y="1561" type="line"/>
      <point x="590" y="1477" type="line"/>
      <point x="699.701492537" y="1467.29850746"/>
      <point x="882.164179104" y="1380.32835821"/>
      <point x="965" y="1296" type="qcurve"/>
      <point x="907" y="1233" type="line"/>
      <point x="836.850746269" y="1307.62686567"/>
      <point x="687.76119403" y="1394.55223881"/>
      <point x="590" y="1405" type="qcurve"/>
    </contour>
    <contour>
      <point x="213" y="1143" type="qcurve" smooth="yes"/>
      <point x="213.0" y="1029.56716418"/>
      <point x="358.537313433" y="885.208955224"/>
      <point x="516" y="827" type="qcurve"/>
      <point x="516" y="1407" type="line"/>
      <point x="368.985074627" y="1404.01492537"/>
      <point x="213.0" y="1258.67164179"/>
    </contour>
    <contour>
      <point x="590" y="68" type="line"/>
      <point x="740.0" y="76.9552238806"/>
      <point x="922.0" y="231.447761194"/>
      <point x="922" y="371" type="qcurve" smooth="yes"/>
      <point x="922.0" y="488.164179104"/>
      <point x="784.029850746" y="643.119402985"/>
      <point x="590" y="717" type="qcurve"/>
    </contour>
  </outline>
</glyph>
<glyph name="quotesingle" format="1">
  <advance width="348.16"/>
  <unicode hex="0027"/>
  <outline>
    <contour>
      <point x="125" y="1475" type="line"/>
      <point x="223" y="1475" type="line"/>
      <point x="201" y="1075" type="line"/>
      <point x="147" y="1075" type="line"/>
    </contour>
  </outline>
</glyph>
<glyph name="parenleft" format="1">
  <advance width="604.16"/>
  <unicode hex="0028"/>
  <outline>
    <contour>
      <point x="217" y="655" type="qcurve" smooth="yes"/>
      <point x="217.0" y="390.820895522"/>
      <point x="390.686567164" y="-26.3432835821"/>
      <point x="528" y="-195" type="qcurve"/>
      <point x="455" y="-195" type="line"/>
      <point x="329.626865672" y="-49.4776119403"/>
      <point x="127.0" y="372.164179104"/>
      <point x="127" y="655" type="qcurve" smooth="yes"/>
      <point x="127.0" y="937.835820896"/>
      <point x="329.626865672" y="1360.2238806"/>
      <point x="455" y="1505" type="qcurve"/>
      <point x="528" y="1505" type="line"/>
      <point x="390.686567164" y="1337.08955224"/>
      <point x="217.0" y="919.925373134"/>
    </contour>
  </outline>
</glyph>
<glyph name="asterisk" format="1">
  <advance width="901.12"/>
  <unicode hex="002A"/>
  <outline>
    <contour>
      <point x="780" y="1276" type="line"/>
      <point x="809" y="1188" type="line"/>
      <point x="483" y="1110" type="line"/>
      <point x="707" y="856" type="line"/>
      <point x="631" y="801" type="line"/>
      <point x="451" y="1094" type="line"/>
      <point x="270" y="801" type="line"/>
      <point x="195" y="856" type="line"/>
      <point x="418" y="1110" type="line"/>
      <point x="92" y="1188" type="line"/>
      <point x="121" y="1276" type="line"/>
      <point x="432" y="1141" type="line"/>
      <point x="403" y="1475" type="line"/>
      <point x="498" y="1475" type="line"/>
      <point x="469" y="1141" type="line"/>
    </contour>
  </outline>
</glyph>
<glyph name="slash" format="1">
  <advance width="737.28"/>
  <unicode hex="002F"/>
  <outline>
    <contour>
      <point x="614" y="1505" type="line"/>
      <point x="700" y="1505" type="line"/>
      <point x="63" y="-195" type="line"/>
      <point x="-23" y="-195" type="line"/>
    </contour>
  </outline>
</glyph>
<glyph name="five" format="1">
  <advance width="1085.44"/>
  <unicode hex="0035"/>
  <outline>
    <contour>
      <point x="987" y="500" type="qcurve" smooth="yes"/>
      <point x="987" y="496" type="line" smooth="yes"/>
      <point x="987.0" y="245.253731343"/>
      <point x="656.462686567" y="-20.0"/>
      <point x="449" y="-20" type="qcurve" smooth="yes"/>
      <point x="337.059701493" y="-20.0"/>
      <point x="177.313432836" y="13.447761194"/>
      <point x="90" y="53" type="qcurve"/>
      <point x="115" y="129" type="line"/>
      <point x="205.298507463" y="84.9701492537"/>
      <point x="355.23880597" y="53.0"/>
      <point x="453" y="53" type="qcurve" smooth="yes"/>
      <point x="654.492537313" y="53.0"/>
      <point x="897.0" y="289.76119403"/>
      <point x="897" y="492" type="qcurve" smooth="yes"/>
      <point x="897" y="496" type="line" smooth="yes"/>
      <point x="897.0" y="668.388059701"/>
      <point x="727.47761194" y="854.0"/>
      <point x="573" y="854" type="qcurve" smooth="yes"/>
      <point x="480.462686567" y="854.0"/>
      <point x="344.194029851" y="781.208955224"/>
      <point x="283" y="723" type="qcurve"/>
      <point x="160" y="723" type="line"/>
      <point x="244" y="1475" type="line"/>
      <point x="907" y="1475" type="line"/>
      <point x="907" y="1401" type="line"/>
      <point x="317" y="1401" type="line"/>
      <point x="250" y="791" type="line"/>
      <point x="268" y="791" type="line"/>
      <point x="332.179104478" y="852.940298507"/>
      <point x="477.552238806" y="928.0"/>
      <point x="588" y="928" type="qcurve" smooth="yes"/>
      <point x="764.865671642" y="928.0"/>
      <point x="987.0" y="704.47761194"/>
    </contour>
  </outline>
</glyph>
<glyph name="six" format="1">
  <advance width="1116.16"/>
  <unicode hex="0036"/>
  <outline>
    <contour>
      <point x="608" y="905" type="qcurve" smooth="yes"/>
      <point x="791.582089552" y="905.0"/>
      <point x="1049.0" y="661.447761194"/>
      <point x="1049" y="451" type="qcurve" smooth="yes"/>
      <point x="1049.0" y="239.805970149"/>
      <point x="762.044776119" y="-25.0"/>
      <point x="571" y="-25" type="qcurve" smooth="yes"/>
      <point x="376.970149254" y="-25.0"/>
      <point x="106.0" y="244.268656716"/>
      <point x="106" y="498" type="qcurve" smooth="yes"/>
      <point x="106.0" y="753.223880597"/>
      <point x="351.358208955" y="1269.7761194"/>
      <point x="573" y="1475" type="qcurve"/>
      <point x="690" y="1475" type="line"/>
      <point x="490.0" y="1301.86567164"/>
      <point x="238.104477612" y="882.089552239"/>
      <point x="209" y="700" type="qcurve"/>
      <point x="223" y="700" type="line"/>
      <point x="294.641791045" y="794.776119403"/>
      <point x="478.149253731" y="905.0"/>
    </contour>
    <contour>
      <point x="575" y="49" type="qcurve" smooth="yes"/>
      <point x="733.955223881" y="49.0"/>
      <point x="958.0" y="264.656716418"/>
      <point x="958" y="446" type="qcurve" smooth="yes"/>
      <point x="958.0" y="623.611940299"/>
      <point x="758.925373134" y="831.0"/>
      <point x="594" y="831" type="qcurve" smooth="yes"/>
      <point x="424.597014925" y="831.0"/>
      <point x="197.0" y="606.686567164"/>
      <point x="197" y="444" type="qcurve" smooth="yes"/>
      <point x="197.0" y="267.134328358"/>
      <point x="416.044776119" y="49.0"/>
    </contour>
  </outline>
</glyph>
<glyph name="seven" format="1">
  <advance width="983.04"/>
  <unicode hex="0037"/>
  <outline>
    <contour>
      <point x="946" y="1475" type="line"/>
      <point x="946" y="1411" type="line"/>
      <point x="746.0" y="1134.13432836"/>
      <point x="390.656716418" y="338.059701493"/>
      <point x="322" y="0" type="qcurve"/>
      <point x="231" y="0" type="line"/>
      <point x="290.701492537" y="294.776119403"/>
      <point x="648.537313433" y="1109.20895522"/>
      <point x="856" y="1401" type="qcurve"/>
      <point x="43" y="1401" type="line"/>
      <point x="43" y="1475" type="line"/>
    </contour>
  </outline>
</glyph>
<glyph name="eight" format="1">
  <advance width="1187.84"/>
  <unicode hex="0038"/>
  <outline>
    <contour>
      <point x="764" y="782" type="line"/>
      <point x="895.343283582" y="746.925373134"/>
      <point x="1079.0" y="551.47761194"/>
      <point x="1079" y="397" type="qcurve" smooth="yes"/>
      <point x="1079.0" y="198.492537313"/>
      <point x="782.059701493" y="-25.0"/>
      <point x="594" y="-25" type="qcurve" smooth="yes"/>
      <point x="405.940298507" y="-25.0"/>
      <point x="109.0" y="194.492537313"/>
      <point x="109" y="393" type="qcurve" smooth="yes"/>
      <point x="109.0" y="547.47761194"/>
      <point x="292.656716418" y="746.925373134"/>
      <point x="424" y="782" type="qcurve"/>
      <point x="424" y="797" type="line"/>
      <point x="310.567164179" y="833.567164179"/>
      <point x="150.0" y="1003.37313433"/>
      <point x="150" y="1128" type="qcurve" smooth="yes"/>
      <point x="150.0" y="1292.17910448"/>
      <point x="410.417910448" y="1499.0"/>
      <point x="594" y="1499" type="qcurve" smooth="yes"/>
      <point x="777.582089552" y="1499.0"/>
      <point x="1038.0" y="1296.43283582"/>
      <point x="1038" y="1133" type="qcurve" smooth="yes"/>
      <point x="1038.0" y="1007.62686567"/>
      <point x="876.686567164" y="835.059701493"/>
      <point x="764" y="797" type="qcurve"/>
    </contour>
    <contour>
      <point x="594" y="49" type="qcurve" smooth="yes"/>
      <point x="757.432835821" y="49.0"/>
      <point x="989.0" y="229.089552239"/>
      <point x="989" y="397" type="qcurve" smooth="yes"/>
      <point x="989.0" y="568.641791045"/>
      <point x="752.955223881" y="758.0"/>
      <point x="594" y="758" type="qcurve" smooth="yes"/>
      <point x="435.044776119" y="758.0"/>
      <point x="199.0" y="572.641791045"/>
      <point x="199" y="401" type="qcurve" smooth="yes"/>
      <point x="199.0" y="233.089552239"/>
      <point x="430.567164179" y="49.0"/>
    </contour>
    <contour>
      <point x="594" y="815" type="qcurve" smooth="yes"/>
      <point x="737.28358209" y="815.0"/>
      <point x="948.0" y="976.71641791"/>
      <point x="948" y="1120" type="qcurve" smooth="yes"/>
      <point x="948.0" y="1256.56716418"/>
      <point x="752.955223881" y="1425.0"/>
      <point x="594" y="1425" type="qcurve" smooth="yes"/>
      <point x="435.044776119" y="1425.0"/>
      <point x="240.0" y="1260.56716418"/>
      <point x="240" y="1124" type="qcurve" smooth="yes"/>
      <point x="240.0" y="980.71641791"/>
      <point x="449.970149254" y="815.0"/>
    </contour>
  </outline>
</glyph>
<glyph name="semicolon" format="1">
  <advance width="389.12"/>
  <unicode hex="003B"/>
  <outline>
    <contour>
      <point x="195" y="1057" type="qcurve" smooth="yes"/>
      <point x="228.582089552" y="1057.0"/>
      <point x="272.0" y="1012.58208955"/>
      <point x="272" y="979" type="qcurve" smooth="yes"/>
      <point x="272.0" y="945.417910448"/>
      <point x="228.582089552" y="901.0"/>
      <point x="195" y="901" type="qcurve" smooth="yes"/>
      <point x="161.417910448" y="901.0"/>
      <point x="117.0" y="945.417910448"/>
      <point x="117" y="979" type="qcurve" smooth="yes"/>
      <point x="117.0" y="1012.58208955"/>
      <point x="161.417910448" y="1057.0"/>
    </contour>
    <contour>
      <point x="139" y="154" type="line"/>
      <point x="246" y="154" type="line"/>
      <point x="127" y="-246" type="line"/>
      <point x="68" y="-246" type="line"/>
    </contour>
  </outline>
</glyph>
<glyph name="less" format="1">
  <advance width="1228.8"/>
  <unicode hex="003C"/>
  <outline>
    <contour>
      <point x="1106" y="309" type="line"/>
      <point x="1106" y="223" type="line"/>
      <point x="104" y="686" type="line"/>
      <point x="104" y="768" type="line"/>
      <point x="1106" y="1231" type="line"/>
      <point x="1106" y="1145" type="line"/>
      <point x="193" y="727" type="line"/>
    </contour>
  </outline>
</glyph>
<glyph name="equal" format="1">
  <advance width="1228.8"/>
  <unicode hex="003D"/>
  <outline>
    <contour>
      <point x="1104" y="532" type="line"/>
      <point x="1104" y="446" type="line"/>
      <point x="125" y="446" type="line"/>
      <point x="125" y="532" type="line"/>
    </contour>
    <contour>
      <point x="1104" y="1008" type="line"/>
      <point x="1104" y="922" type="line"/>
      <point x="125" y="922" type="line"/>
      <point x="125" y="1008" type="line"/>
    </contour>
  </outline>
</glyph>
<glyph name="at" format="1">
  <advance width="2068.48"/>
  <unicode hex="0040"/>
  <outline>
    <contour>
      <point x="1075" y="1499" type="qcurve" smooth="yes"/>
      <point x="1440.67164179" y="1499.0"/>
      <point x="1944.0" y="1050.65671642"/>
      <point x="1944" y="682" type="qcurve" smooth="yes"/>
      <point x="1944.0" y="416.328358209"/>
      <point x="1655.89552239" y="68.0"/>
      <point x="1485" y="68" type="qcurve" smooth="yes"/>
      <point x="1368.58208955" y="68.0"/>
      <point x="1249.98507463" y="205.582089552"/>
      <point x="1247" y="322" type="qcurve"/>
      <point x="1237" y="322" type="line"/>
      <point x="1163.86567164" y="201.104477612"/>
      <point x="990.791044776" y="68.0"/>
      <point x="899" y="68" type="qcurve" smooth="yes"/>
      <point x="778.104477612" y="68.0"/>
      <point x="627.0" y="256.567164179"/>
      <point x="627" y="420" type="qcurve" smooth="yes"/>
      <point x="627.0" y="673.731343284"/>
      <point x="863.104477612" y="1049.0"/>
      <point x="1034" y="1049" type="qcurve" smooth="yes"/>
      <point x="1144.44776119" y="1049.0"/>
      <point x="1270.91044776" y="901.71641791"/>
      <point x="1303" y="795" type="qcurve"/>
      <point x="1313" y="793" type="line"/>
      <point x="1356" y="1044" type="line"/>
      <point x="1430" y="1006" type="line"/>
      <point x="1323" y="403" type="line" smooth="yes"/>
      <point x="1302.85074627" y="291.805970149"/>
      <point x="1381.05970149" y="123.0"/>
      <point x="1493" y="123" type="qcurve" smooth="yes"/>
      <point x="1631.80597015" y="123.0"/>
      <point x="1872.0" y="437.701492537"/>
      <point x="1872" y="678" type="qcurve" smooth="yes"/>
      <point x="1872.0" y="1026.50746269"/>
      <point x="1420.49253731" y="1438.0"/>
      <point x="1069" y="1438" type="qcurve" smooth="yes"/>
      <point x="704.074626866" y="1438.0"/>
      <point x="199.0" y="915.895522388"/>
      <point x="199" y="545" type="qcurve" smooth="yes"/>
      <point x="199.0" y="153.208955224"/>
      <point x="668.910447761" y="-332.0"/>
      <point x="1051" y="-332" type="qcurve" smooth="yes"/>
      <point x="1236.82089552" y="-332.0"/>
      <point x="1523.68656716" y="-257.373134328"/>
      <point x="1661" y="-182" type="qcurve"/>
      <point x="1692" y="-233" type="line"/>
      <point x="1549.46268657" y="-309.865671642"/>
      <point x="1245.50746269" y="-393.0"/>
      <point x="1047" y="-393" type="qcurve" smooth="yes"/>
      <point x="634.313432836" y="-393.0"/>
      <point x="125.0" y="122.850746269"/>
      <point x="125" y="543" type="qcurve" smooth="yes"/>
      <point x="125.0" y="945.985074627"/>
      <point x="686.940298507" y="1499.0"/>
    </contour>
    <contour>
      <point x="915" y="131" type="qcurve" smooth="yes"/>
      <point x="1053.05970149" y="131.0"/>
      <point x="1284.0" y="461.388059701"/>
      <point x="1284" y="639" type="qcurve" smooth="yes"/>
      <point x="1284.0" y="762.880597015"/>
      <point x="1151.94029851" y="981.0"/>
      <point x="1040" y="981" type="qcurve" smooth="yes"/>
      <point x="898.208955224" y="981.0"/>
      <point x="707.0" y="665.074626866"/>
      <point x="707" y="430" type="qcurve" smooth="yes"/>
      <point x="707.0" y="295.671641791"/>
      <point x="815.746268657" y="131.0"/>
    </contour>
  </outline>
</glyph>
<glyph name="A" format="1">
  <advance width="1351.68"/>
  <unicode hex="0041"/>
  <outline>
    <contour>
      <point x="741" y="1483" type="line"/>
      <point x="1286" y="0" type="line"/>
      <point x="1194" y="0" type="line"/>
      <point x="1044" y="412" type="line"/>
      <point x="303" y="412" type="line"/>
      <point x="154" y="0" type="line"/>
      <point x="66" y="0" type="line"/>
      <point x="610" y="1483" type="line"/>
    </contour>
    <contour>
      <point x="330" y="485" type="line"/>
      <point x="1018" y="485" type="line"/>
      <point x="682" y="1405" type="line"/>
      <point x="666" y="1405" type="line"/>
    </contour>
  </outline>
</glyph>
<glyph name="E" format="1">
  <advance width="1134.592"/>
  <unicode hex="0045"/>
  <outline>
    <contour>
      <point x="1049" y="74" type="line"/>
      <point x="1049" y="0" type="line"/>
      <point x="188" y="0" type="line"/>
      <point x="188" y="1475" type="line"/>
      <point x="1024" y="1475" type="line"/>
      <point x="1024" y="1401" type="line"/>
      <point x="279" y="1401" type="line"/>
      <point x="279" y="811" type="line"/>
      <point x="915" y="811" type="line"/>
      <point x="915" y="737" type="line"/>
      <point x="279" y="737" type="line"/>
      <point x="279" y="74" type="line"/>
    </contour>
  </outline>
</glyph>
<glyph name="G" format="1">
  <advance width="1245.184"/>
  <unicode hex="0047"/>
  <outline>
    <contour>
      <point x="1118" y="676" type="line"/>
      <point x="1118" y="0" type="line"/>
      <point x="1049" y="0" type="line"/>
      <point x="1049" y="471" type="line"/>
      <point x="1038" y="471" type="line"/>
      <point x="995.462686567" y="246.373134328"/>
      <point x="800.029850746" y="-25.0"/>
      <point x="606" y="-25" type="qcurve" smooth="yes"/>
      <point x="382.865671642" y="-25.0"/>
      <point x="117.0" y="391.955223881"/>
      <point x="117" y="733" type="qcurve" smooth="yes"/>
      <point x="117" y="737" type="line" smooth="yes"/>
      <point x="117.0" y="1078.04477612"/>
      <point x="382.417910448" y="1499.0"/>
      <point x="616" y="1499" type="qcurve" smooth="yes"/>
      <point x="783.164179104" y="1499.0"/>
      <point x="1001.7761194" y="1300.43283582"/>
      <point x="1057" y="1137" type="qcurve"/>
      <point x="977" y="1104" type="line"/>
      <point x="929.23880597" y="1248.7761194"/>
      <point x="754.059701493" y="1425.0"/>
      <point x="616" y="1425" type="qcurve" smooth="yes"/>
      <point x="414.507462687" y="1425.0"/>
      <point x="207.0" y="1035.02985075"/>
      <point x="207" y="741" type="qcurve" smooth="yes"/>
      <point x="207" y="737" type="line" smooth="yes"/>
      <point x="207.0" y="442.223880597"/>
      <point x="419.462686567" y="49.0"/>
      <point x="612" y="49" type="qcurve" smooth="yes"/>
      <point x="786.626865672" y="49.0"/>
      <point x="974.134328358" y="343.791044776"/>
      <point x="1001" y="602" type="qcurve"/>
      <point x="639" y="602" type="line"/>
      <point x="639" y="676" type="line"/>
    </contour>
  </outline>
</glyph>
<glyph name="K" format="1">
  <advance width="1173.504"/>
  <unicode hex="004B"/>
  <outline>
    <contour>
      <point x="463" y="801" type="line"/>
      <point x="1176" y="0" type="line"/>
      <point x="1061" y="0" type="line"/>
      <point x="354" y="797" type="line"/>
      <point x="354" y="801" type="line"/>
      <point x="1030" y="1475" type="line"/>
      <point x="1141" y="1475" type="line"/>
    </contour>
    <contour>
      <point x="279" y="1475" type="line"/>
      <point x="279" y="0" type="line"/>
      <point x="188" y="0" type="line"/>
      <point x="188" y="1475" type="line"/>
    </contour>
  </outline>
</glyph>
<glyph name="M" format="1">
  <advance width="1662.976"/>
  <unicode hex="004D"/>
  <outline>
    <contour>
      <point x="1475" y="1475" type="line"/>
      <point x="1475" y="0" type="line"/>
      <point x="1384" y="0" type="line"/>
      <point x="1384" y="1409" type="line"/>
      <point x="1362" y="1409" type="line"/>
      <point x="889" y="0" type="line"/>
      <point x="770" y="0" type="line"/>
      <point x="297" y="1409" type="line"/>
      <point x="274" y="1409" type="line"/>
      <point x="274" y="0" type="line"/>
      <point x="188" y="0" type="line"/>
      <point x="188" y="1475" type="line"/>
      <point x="369" y="1475" type="line"/>
      <point x="825" y="90" type="line"/>
      <point x="842" y="90" type="line"/>
      <point x="1298" y="1475" type="line"/>
    </contour>
  </outline>
</glyph>
<glyph name="O" format="1">
  <advance width="1245.184"/>
  <unicode hex="004F"/>
  <outline>
    <contour>
      <point x="1128" y="741" type="qcurve" smooth="yes"/>
      <point x="1128" y="737" type="line" smooth="yes"/>
      <point x="1128.0" y="396.701492537"/>
      <point x="862.552238806" y="-25.0"/>
      <point x="623" y="-25" type="qcurve" smooth="yes"/>
      <point x="382.701492537" y="-25.0"/>
      <point x="117.0" y="391.955223881"/>
      <point x="117" y="733" type="qcurve" smooth="yes"/>
      <point x="117" y="737" type="line" smooth="yes"/>
      <point x="117.0" y="1078.04477612"/>
      <point x="382.701492537" y="1499.0"/>
      <point x="623" y="1499" type="qcurve" smooth="yes"/>
      <point x="862.552238806" y="1499.0"/>
      <point x="1128.0" y="1082.04477612"/>
    </contour>
    <contour>
      <point x="623" y="49" type="qcurve" smooth="yes"/>
      <point x="830.462686567" y="49.0"/>
      <point x="1038.0" y="438.223880597"/>
      <point x="1038" y="733" type="qcurve" smooth="yes"/>
      <point x="1038" y="737" type="line" smooth="yes"/>
      <point x="1038.0" y="1030.28358209"/>
      <point x="830.462686567" y="1425.0"/>
      <point x="623" y="1425" type="qcurve" smooth="yes"/>
      <point x="414.791044776" y="1425.0"/>
      <point x="207.0" y="1035.02985075"/>
      <point x="207" y="741" type="qcurve" smooth="yes"/>
      <point x="207" y="737" type="line" smooth="yes"/>
      <point x="207.0" y="442.223880597"/>
      <point x="414.791044776" y="49.0"/>
    </contour>
  </outline>
</glyph>
<glyph name="R" format="1">
  <advance width="1210.368"/>
  <unicode hex="0052"/>
  <outline>
    <contour>
      <point x="668" y="678" type="qcurve"/>
      <point x="1118" y="0" type="line"/>
      <point x="1014" y="0" type="line"/>
      <point x="567" y="676" type="line"/>
      <point x="279" y="676" type="line"/>
      <point x="279" y="0" type="line"/>
      <point x="188" y="0" type="line"/>
      <point x="188" y="1475" type="line"/>
      <point x="621" y="1475" type="line" smooth="yes"/>
      <point x="840.402985075" y="1475.0"/>
      <point x="1083.0" y="1274.01492537"/>
      <point x="1083" y="1077" type="qcurve" smooth="yes"/>
      <point x="1083.0" y="893.417910448"/>
      <point x="868.0" y="689.940298507"/>
    </contour>
    <contour>
      <point x="621" y="750" type="line" smooth="yes"/>
      <point x="799.358208955" y="750.0"/>
      <point x="993.0" y="903.597014925"/>
      <point x="993" y="1073" type="qcurve" smooth="yes"/>
      <point x="993.0" y="1236.43283582"/>
      <point x="799.552238806" y="1401.0"/>
      <point x="610" y="1401" type="qcurve" smooth="yes"/>
      <point x="279" y="1401" type="line"/>
      <point x="279" y="750" type="line"/>
    </contour>
  </outline>
</glyph>
<glyph name="S" format="1">
  <advance width="1136.64"/>
  <unicode hex="0053"/>
  <outline>
    <contour>
      <point x="600" y="809" type="qcurve" smooth="yes"/>
      <point x="840.298507463" y="724.671641791"/>
      <point x="1028.0" y="522.686567164"/>
      <point x="1028" y="360" type="qcurve" smooth="yes"/>
      <point x="1028.0" y="172.686567164"/>
      <point x="756.895522388" y="-25.0"/>
      <point x="586" y="-25" type="qcurve" smooth="yes"/>
      <point x="397.940298507" y="-25.0"/>
      <point x="149.76119403" y="153.373134328"/>
      <point x="102" y="328" type="qcurve"/>
      <point x="182" y="360" type="line"/>
      <point x="231.253731343" y="199.552238806"/>
      <point x="438.985074627" y="49.0"/>
      <point x="586" y="49" type="qcurve" smooth="yes"/>
      <point x="729.28358209" y="49.0"/>
      <point x="938.0" y="209.223880597"/>
      <point x="938" y="354" type="qcurve" smooth="yes"/>
      <point x="938.0" y="486.835820896"/>
      <point x="788.134328358" y="650.880597015"/>
      <point x="565" y="727" type="qcurve" smooth="yes"/>
      <point x="334.402985075" y="806.850746269"/>
      <point x="147.0" y="1000.52238806"/>
      <point x="147" y="1155" type="qcurve" smooth="yes"/>
      <point x="147.0" y="1290.82089552"/>
      <point x="365.388059701" y="1499.0"/>
      <point x="543" y="1499" type="qcurve" smooth="yes"/>
      <point x="692.253731343" y="1499.0"/>
      <point x="923.268656716" y="1350.0"/>
      <point x="977" y="1200" type="qcurve"/>
      <point x="897" y="1167" type="line"/>
      <point x="847.746268657" y="1286.40298507"/>
      <point x="680.313432836" y="1425.0"/>
      <point x="543" y="1425" type="qcurve" smooth="yes"/>
      <point x="393.0" y="1425.0"/>
      <point x="238.0" y="1261.74626866"/>
      <point x="238" y="1161" type="qcurve" smooth="yes"/>
      <point x="238.0" y="1034.13432836"/>
      <point x="395.52238806" y="880.641791045"/>
    </contour>
  </outline>
</glyph>
<glyph name="V" format="1">
  <advance width="1232.896"/>
  <unicode hex="0056"/>
  <outline>
    <contour>
      <point x="1079" y="1475" type="line"/>
      <point x="1167" y="1475" type="line"/>
      <point x="672" y="-16" type="line"/>
      <point x="561" y="-16" type="line"/>
      <point x="66" y="1475" type="line"/>
      <point x="158" y="1475" type="line"/>
      <point x="612" y="70" type="line"/>
      <point x="625" y="70" type="line"/>
    </contour>
  </outline>
</glyph>
<glyph name="backslash" format="1">
  <advance width="737.28"/>
  <unicode hex="005C"/>
  <outline>
    <contour>
      <point x="127" y="1505" type="line"/>
      <point x="760" y="-195" type="line"/>
      <point x="670" y="-195" type="line"/>
      <point x="37" y="1505" type="line"/>
    </contour>
  </outline>
</glyph>
<glyph name="a" format="1">
  <advance width="974.848"/>
  <unicode hex="0061"/>
  <outline>
    <contour>
      <point x="922" y="49" type="qcurve"/>
      <point x="922" y="-8" type="line"/>
      <point x="837.671641791" y="-8.0"/>
      <point x="726.970149254" y="101.910447761"/>
      <point x="721" y="184" type="qcurve"/>
      <point x="709" y="184" type="line"/>
      <point x="629.149253731" y="80.2686567164"/>
      <point x="456.268656716" y="-16.0"/>
      <point x="360" y="-16" type="qcurve" smooth="yes"/>
      <point x="242.835820896" y="-16.0"/>
      <point x="72.0" y="125.671641791"/>
      <point x="72" y="260" type="qcurve" smooth="yes"/>
      <point x="72.0" y="420.447761194"/>
      <point x="404.582089552" y="623.223880597"/>
      <point x="721" y="618" type="qcurve"/>
      <point x="721" y="750" type="line" smooth="yes"/>
      <point x="721.0" y="876.865671642"/>
      <point x="618.746268657" y="991.0"/>
      <point x="518" y="991" type="qcurve" smooth="yes"/>
      <point x="430.686567164" y="991.0"/>
      <point x="278.582089552" y="935.507462687"/>
      <point x="195" y="887" type="qcurve"/>
      <point x="164" y="950" type="line"/>
      <point x="243.104477612" y="994.776119403"/>
      <point x="417.820895522" y="1059.0"/>
      <point x="532" y="1059" type="qcurve" smooth="yes"/>
      <point x="671.552238806" y="1059.0"/>
      <point x="803.0" y="910.47761194"/>
      <point x="803" y="756" type="qcurve" smooth="yes"/>
      <point x="803" y="207" type="line" smooth="yes"/>
      <point x="803.0" y="138.343283582"/>
      <point x="862.298507463" y="53.4776119403"/>
    </contour>
    <contour>
      <point x="371" y="49" type="qcurve" smooth="yes"/>
      <point x="465.776119403" y="49.0"/>
      <point x="649.358208955" y="155.791044776"/>
      <point x="721" y="264" type="qcurve"/>
      <point x="721" y="559" type="line"/>
      <point x="419.507462687" y="566.462686567"/>
      <point x="154.0" y="384.895522388"/>
      <point x="154" y="264" type="qcurve" smooth="yes"/>
      <point x="154.0" y="163.253731343"/>
      <point x="279.208955224" y="49.0"/>
    </contour>
  </outline>
</glyph>
<glyph name="c" format="1">
  <advance width="880.64"/>
  <unicode hex="0063"/>
  <outline>
    <contour>
      <point x="750" y="256" type="qcurve"/>
      <point x="811" y="227" type="line"/>
      <point x="761.746268657" y="115.805970149"/>
      <point x="598.910447761" y="-20.0"/>
      <point x="481" y="-20" type="qcurve" smooth="yes"/>
      <point x="307.119402985" y="-20.0"/>
      <point x="94.0" y="281.940298507"/>
      <point x="94" y="520" type="qcurve" smooth="yes"/>
      <point x="94" y="524" type="line" smooth="yes"/>
      <point x="94.0" y="759.820895522"/>
      <point x="310.134328358" y="1069.0"/>
      <point x="487" y="1069" type="qcurve" smooth="yes"/>
      <point x="604.910447761" y="1069.0"/>
      <point x="755.746268657" y="944.71641791"/>
      <point x="805" y="838" type="qcurve"/>
      <point x="739" y="807" type="line"/>
      <point x="694.970149254" y="897.298507463"/>
      <point x="579.268656716" y="1004.0"/>
      <point x="483" y="1004" type="qcurve" smooth="yes"/>
      <point x="341.208955224" y="1004.0"/>
      <point x="176.0" y="734.71641791"/>
      <point x="176" y="528" type="qcurve" smooth="yes"/>
      <point x="176" y="524" type="line" smooth="yes"/>
      <point x="176.0" y="316.537313433"/>
      <point x="340.223880597" y="45.0"/>
      <point x="485" y="45" type="qcurve" smooth="yes"/>
      <point x="578.28358209" y="45.0"/>
      <point x="702.23880597" y="155.253731343"/>
    </contour>
  </outline>
</glyph>
<glyph name="d" format="1">
  <advance width="1028.096"/>
  <unicode hex="0064"/>
  <outline>
    <contour>
      <point x="872" y="1561" type="line"/>
      <point x="872" y="27" type="line"/>
      <point x="791" y="-18" type="line"/>
      <point x="791" y="242" type="line"/>
      <point x="778" y="242" type="line"/>
      <point x="716.805970149" y="122.597014925"/>
      <point x="570.164179104" y="-20.0"/>
      <point x="453" y="-20" type="qcurve" smooth="yes"/>
      <point x="307.47761194" y="-20.0"/>
      <point x="94.0" y="252.835820896"/>
      <point x="94" y="520" type="qcurve" smooth="yes"/>
      <point x="94" y="524" type="line" smooth="yes"/>
      <point x="94.0" y="790.417910448"/>
      <point x="318.940298507" y="1069.0"/>
      <point x="457" y="1069" type="qcurve" smooth="yes"/>
      <point x="568.194029851" y="1069.0"/>
      <point x="721.28358209" y="927.417910448"/>
      <point x="778" y="811" type="qcurve"/>
      <point x="791" y="811" type="line"/>
      <point x="791" y="1516" type="line"/>
    </contour>
    <contour>
      <point x="469" y="45" type="qcurve" smooth="yes"/>
      <point x="606.313432836" y="45.0"/>
      <point x="797.0" y="344.149253731"/>
      <point x="797" y="524" type="qcurve" smooth="yes"/>
      <point x="797.0" y="704.597014925"/>
      <point x="607.298507463" y="1004.0"/>
      <point x="467" y="1004" type="qcurve" smooth="yes"/>
      <point x="350.582089552" y="1004.0"/>
      <point x="176.0" y="767.791044776"/>
      <point x="176" y="526" type="qcurve" smooth="yes"/>
      <point x="176.0" y="272.268656716"/>
      <point x="355.567164179" y="45.0"/>
    </contour>
  </outline>
</glyph>
<glyph name="e" format="1">
  <advance width="911.36"/>
  <unicode hex="0065"/>
  <outline>
    <contour>
      <point x="827" y="518" type="qcurve" smooth="yes"/>
      <point x="827" y="514" type="line"/>
      <point x="176" y="514" type="line"/>
      <point x="177.492537313" y="289.373134328"/>
      <point x="352.47761194" y="45.0"/>
      <point x="498" y="45" type="qcurve" smooth="yes"/>
      <point x="580.089552239" y="45.0"/>
      <point x="707.28358209" y="115.313432836"/>
      <point x="764" y="178" type="qcurve"/>
      <point x="813" y="131" type="line"/>
      <point x="754.791044776" y="65.328358209"/>
      <point x="596.23880597" y="-20.0"/>
      <point x="494" y="-20" type="qcurve" smooth="yes"/>
      <point x="320.865671642" y="-20.0"/>
      <point x="94.0" y="261.791044776"/>
      <point x="94" y="520" type="qcurve" smooth="yes"/>
      <point x="94" y="524" type="line" smooth="yes"/>
      <point x="94.0" y="759.820895522"/>
      <point x="306.074626866" y="1069.0"/>
      <point x="471" y="1069" type="qcurve" smooth="yes"/>
      <point x="635.925373134" y="1069.0"/>
      <point x="827.0" y="765.76119403"/>
    </contour>
    <contour>
      <point x="178" y="580" type="qcurve"/>
      <point x="743" y="580" type="line"/>
      <point x="731.059701493" y="780.0"/>
      <point x="596.373134328" y="1004.0"/>
      <point x="471" y="1004" type="qcurve" smooth="yes"/>
      <point x="342.641791045" y="1004.0"/>
      <point x="186.955223881" y="765.820895522"/>
    </contour>
  </outline>
</glyph>
<glyph name="j" format="1">
  <advance width="434.176"/>
  <unicode hex="006A"/>
  <outline>
    <contour>
      <point x="258" y="1049" type="line"/>
      <point x="258" y="-147" type="line" smooth="yes"/>
      <point x="258.0" y="-269.388059701"/>
      <point x="147.71641791" y="-389.0"/>
      <point x="41" y="-389" type="qcurve" smooth="yes"/>
      <point x="8.91044776119" y="-389.0"/>
      <point x="-34.6119402985" y="-380.462686567"/>
      <point x="-57" y="-373" type="qcurve"/>
      <point x="-57" y="-301" type="line"/>
      <point x="-31.6268656716" y="-311.447761194"/>
      <point x="17.4179104478" y="-322.0"/>
      <point x="51" y="-322" type="qcurve" smooth="yes"/>
      <point x="109.208955224" y="-322.0"/>
      <point x="176.0" y="-247.791044776"/>
      <point x="176" y="-156" type="qcurve" smooth="yes"/>
      <point x="176" y="1049" type="line"/>
    </contour>
    <contour>
      <point x="274" y="1475" type="line"/>
      <point x="274" y="1321" type="line"/>
      <point x="160" y="1321" type="line"/>
      <point x="160" y="1475" type="line"/>
    </contour>
  </outline>
</glyph>
<glyph name="k" format="1">
  <advance width="884.736"/>
  <unicode hex="006B"/>
  <outline>
    <contour>
      <point x="377" y="532" type="line"/>
      <point x="866" y="0" type="line"/>
      <point x="762" y="0" type="line"/>
      <point x="283" y="526" type="line"/>
      <point x="283" y="532" type="line"/>
      <point x="754" y="1049" type="line"/>
      <point x="852" y="1049" type="line"/>
    </contour>
    <contour>
      <point x="238" y="1561" type="line"/>
      <point x="238" y="0" type="line"/>
      <point x="156" y="0" type="line"/>
      <point x="156" y="1516" type="line"/>
    </contour>
  </outline>
</glyph>
<glyph name="r" format="1">
  <advance width="727.04"/>
  <unicode hex="0072"/>
  <outline>
    <contour>
      <point x="690" y="1067" type="qcurve"/>
      <point x="690" y="967" type="line"/>
      <point x="557.164179104" y="934.910447761"/>
      <point x="320.089552239" y="705.0"/>
      <point x="238" y="555" type="qcurve"/>
      <point x="238" y="0" type="line"/>
      <point x="156" y="0" type="line"/>
      <point x="156" y="1022" type="line"/>
      <point x="238" y="1067" type="line"/>
      <point x="238" y="651" type="line"/>
      <point x="250" y="651" type="line"/>
      <point x="353.731343284" y="824.134328358"/>
      <point x="577.313432836" y="1042.37313433"/>
    </contour>
  </outline>
</glyph>
<glyph name="s" format="1">
  <advance width="804.864"/>
  <unicode hex="0073"/>
  <outline>
    <contour>
      <point x="422" y="584" type="qcurve" smooth="yes"/>
      <point x="594.388059701" y="521.313432836"/>
      <point x="727.0" y="373.432835821"/>
      <point x="727" y="260" type="qcurve" smooth="yes"/>
      <point x="727.0" y="124.179104478"/>
      <point x="531.134328358" y="-16.0"/>
      <point x="408" y="-16" type="qcurve" smooth="yes"/>
      <point x="303.52238806" y="-16.0"/>
      <point x="136.179104478" y="47.4925373134"/>
      <point x="72" y="96" type="qcurve"/>
      <point x="106" y="160" type="line"/>
      <point x="172.417910448" y="109.253731343"/>
      <point x="319.194029851" y="45.0"/>
      <point x="408" y="45" type="qcurve" smooth="yes"/>
      <point x="507.253731343" y="45.0"/>
      <point x="647.0" y="154.746268657"/>
      <point x="647" y="254" type="qcurve" smooth="yes"/>
      <point x="647.0" y="345.791044776"/>
      <point x="537.507462687" y="454.776119403"/>
      <point x="389" y="510" type="qcurve" smooth="yes"/>
      <point x="237.507462687" y="566.71641791"/>
      <point x="100.0" y="705.268656716"/>
      <point x="100" y="809" type="qcurve" smooth="yes"/>
      <point x="100.0" y="911.23880597"/>
      <point x="256.641791045" y="1065.0"/>
      <point x="385" y="1065" type="qcurve" smooth="yes"/>
      <point x="476.791044776" y="1065.0"/>
      <point x="611.402985075" y="1019.0"/>
      <point x="692" y="969" type="qcurve"/>
      <point x="655" y="903" type="line"/>
      <point x="586.343283582" y="952.253731343"/>
      <point x="458.134328358" y="1004.0"/>
      <point x="385" y="1004" type="qcurve" smooth="yes"/>
      <point x="284.253731343" y="1004.0"/>
      <point x="178.0" y="888.134328358"/>
      <point x="178" y="815" type="qcurve" smooth="yes"/>
      <point x="178.0" y="732.910447761"/>
      <point x="296.626865672" y="629.52238806"/>
    </contour>
  </outline>
</glyph>
<glyph name="w" format="1">
  <advance width="1499.136"/>
  <unicode hex="0077"/>
  <outline>
    <contour>
      <point x="1352" y="1049" type="line"/>
      <point x="1434" y="1049" type="line"/>
      <point x="1100" y="-8" type="line"/>
      <point x="1018" y="-8" type="line"/>
      <point x="750" y="940" type="line"/>
      <point x="481" y="-8" type="line"/>
      <point x="399" y="-8" type="line"/>
      <point x="66" y="1049" type="line"/>
      <point x="152" y="1049" type="line"/>
      <point x="442" y="80" type="line"/>
      <point x="711" y="1049" type="line"/>
      <point x="793" y="1049" type="line"/>
      <point x="1061" y="80" type="line"/>
    </contour>
  </outline>
</glyph>
<glyph name="x" format="1">
  <advance width="929.792"/>
  <unicode hex="0078"/>
  <outline>
    <contour>
      <point x="506" y="537" type="line"/>
      <point x="860" y="0" type="line"/>
      <point x="768" y="0" type="line"/>
      <point x="463" y="479" type="line"/>
      <point x="158" y="0" type="line"/>
      <point x="70" y="0" type="line"/>
      <point x="424" y="532" type="line"/>
      <point x="82" y="1049" type="line"/>
      <point x="174" y="1049" type="line"/>
      <point x="467" y="588" type="line"/>
      <point x="760" y="1049" type="line"/>
      <point x="848" y="1049" type="line"/>
    </contour>
  </outline>
</glyph>
<glyph name="braceleft" format="1">
  <advance width="745.472"/>
  <unicode hex="007B"/>
  <outline>
    <contour>
      <point x="672" y="-98" type="line"/>
      <point x="672" y="-164" type="line"/>
      <point x="545" y="-164" type="line" smooth="yes"/>
      <point x="413.656716418" y="-164.0"/>
      <point x="281.0" y="-29.9104477612"/>
      <point x="281" y="88" type="qcurve" smooth="yes"/>
      <point x="281.0" y="159.641791045"/>
      <point x="322.0" y="353.313432836"/>
      <point x="322" y="416" type="qcurve" smooth="yes"/>
      <point x="322.0" y="524.208955224"/>
      <point x="167.925373134" y="621.0"/>
      <point x="53" y="621" type="qcurve"/>
      <point x="53" y="690" type="line"/>
      <point x="167.925373134" y="690.0"/>
      <point x="322.0" y="786.791044776"/>
      <point x="322" y="895" type="qcurve" smooth="yes"/>
      <point x="322.0" y="957.686567164"/>
      <point x="281.0" y="1150.6119403"/>
      <point x="281" y="1223" type="qcurve" smooth="yes"/>
      <point x="281.0" y="1340.1641791"/>
      <point x="413.656716418" y="1475.0"/>
      <point x="545" y="1475" type="qcurve" smooth="yes"/>
      <point x="672" y="1475" type="line"/>
      <point x="672" y="1409" type="line"/>
      <point x="541" y="1409" type="line" smooth="yes"/>
      <point x="450.701492537" y="1409.0"/>
      <point x="365.0" y="1305.65671642"/>
      <point x="365" y="1237" type="qcurve" smooth="yes"/>
      <point x="365.0" y="1169.8358209"/>
      <point x="406.0" y="991.865671642"/>
      <point x="406" y="915" type="qcurve" smooth="yes"/>
      <point x="406.0" y="797.835820896"/>
      <point x="275.820895522" y="692.358208955"/>
      <point x="190" y="664" type="qcurve"/>
      <point x="190" y="647" type="line"/>
      <point x="275.820895522" y="617.895522388"/>
      <point x="406.0" y="512.910447761"/>
      <point x="406" y="395" type="qcurve" smooth="yes"/>
      <point x="406.0" y="318.880597015"/>
      <point x="365.0" y="141.164179104"/>
      <point x="365" y="74" type="qcurve" smooth="yes"/>
      <point x="365.0" y="5.34328358209"/>
      <point x="450.701492537" y="-98.0"/>
      <point x="541" y="-98" type="qcurve" smooth="yes"/>
    </contour>
  </outline>
</glyph>
<glyph name="braceright" format="1">
  <advance width="745.472"/>
  <unicode hex="007D"/>
  <outline>
    <contour>
      <point x="692" y="690" type="qcurve"/>
      <point x="692" y="621" type="line"/>
      <point x="577.820895522" y="621.0"/>
      <point x="424.0" y="524.208955224"/>
      <point x="424" y="416" type="qcurve" smooth="yes"/>
      <point x="424.0" y="353.313432836"/>
      <point x="465.0" y="159.641791045"/>
      <point x="465" y="88" type="qcurve" smooth="yes"/>
      <point x="465.0" y="-29.9104477612"/>
      <point x="332.343283582" y="-164.0"/>
      <point x="201" y="-164" type="qcurve" smooth="yes"/>
      <point x="74" y="-164" type="line"/>
      <point x="74" y="-98" type="line"/>
      <point x="205" y="-98" type="line" smooth="yes"/>
      <point x="295.298507463" y="-98.0"/>
      <point x="381.0" y="5.34328358209"/>
      <point x="381" y="74" type="qcurve" smooth="yes"/>
      <point x="381.0" y="141.164179104"/>
      <point x="340.0" y="318.880597015"/>
      <point x="340" y="395" type="qcurve" smooth="yes"/>
      <point x="340.0" y="512.910447761"/>
      <point x="469.179104478" y="617.895522388"/>
      <point x="555" y="647" type="qcurve"/>
      <point x="555" y="664" type="line"/>
      <point x="469.179104478" y="692.358208955"/>
      <point x="340.0" y="797.835820896"/>
      <point x="340" y="915" type="qcurve" smooth="yes"/>
      <point x="340.0" y="991.865671642"/>
      <point x="381.0" y="1169.8358209"/>
      <point x="381" y="1237" type="qcurve" smooth="yes"/>
      <point x="381.0" y="1305.65671642"/>
      <point x="295.298507463" y="1409.0"/>
      <point x="205" y="1409" type="qcurve" smooth="yes"/>
      <point x="74" y="1409" type="line"/>
      <point x="74" y="1475" type="line"/>
      <point x="201" y="1475" type="line" smooth="yes"/>
      <point x="332.343283582" y="1475.0"/>
      <point x="465.0" y="1340.1641791"/>
      <point x="465" y="1223" type="qcurve" smooth="yes"/>
      <point x="465.0" y="1150.6119403"/>
      <point x="424.0" y="957.686567164"/>
      <point x="424" y="895" type="qcurve" smooth="yes"/>
      <point x="424.0" y="786.791044776"/>
      <point x="577.820895522" y="690.0"/>
    </contour>
  </outline>
</glyph>
<glyph name="exclamdown" format="1">
  <advance width="471.04"/>
  <unicode hex="00A1"/>
  <outline>
    <contour>
      <point x="236" y="1489" type="qcurve" smooth="yes"/>
      <point x="268.089552239" y="1489.0"/>
      <point x="311.0" y="1445.08955224"/>
      <point x="311" y="1413" type="qcurve" smooth="yes"/>
      <point x="311.0" y="1380.91044776"/>
      <point x="268.089552239" y="1337.0"/>
      <point x="236" y="1337" type="qcurve" smooth="yes"/>
      <point x="203.910447761" y="1337.0"/>
      <point x="160.0" y="1380.91044776"/>
      <point x="160" y="1413" type="qcurve" smooth="yes"/>
      <point x="160.0" y="1445.08955224"/>
      <point x="203.910447761" y="1489.0"/>
    </contour>
    <contour>
      <point x="254" y="1069" type="line"/>
      <point x="291" y="0" type="line"/>
      <point x="180" y="0" type="line"/>
      <point x="217" y="1069" type="line"/>
    </contour>
  </outline>
</glyph>
<glyph name="sterling" format="1">
  <advance width="1146.88"/>
  <unicode hex="00A3"/>
  <outline>
    <contour>
      <point x="1010" y="358" type="qcurve"/>
      <point x="1083" y="336" type="line"/>
      <point x="1053.89552239" y="155.402985075"/>
      <point x="902.23880597" y="-12.0"/>
      <point x="750" y="-12" type="qcurve" smooth="yes"/>
      <point x="644.029850746" y="-12.0"/>
      <point x="468.791044776" y="68.8507462687"/>
      <point x="377" y="139" type="qcurve"/>
      <point x="332.223880597" y="89.0"/>
      <point x="207.626865672" y="15.6119402985"/>
      <point x="133" y="-12" type="qcurve"/>
      <point x="133" y="70" type="line"/>
      <point x="232.253731343" y="103.582089552"/>
      <point x="381.0" y="259.044776119"/>
      <point x="381" y="418" type="qcurve" smooth="yes"/>
      <point x="381.0" y="494.119402985"/>
      <point x="353.910447761" y="631.820895522"/>
      <point x="336" y="696" type="qcurve"/>
      <point x="84" y="696" type="line"/>
      <point x="84" y="768" type="line"/>
      <point x="313" y="768" type="line"/>
      <point x="287.626865672" y="852.328358209"/>
      <point x="242.0" y="1017.19402985"/>
      <point x="242" y="1106" type="qcurve" smooth="yes"/>
      <point x="242.0" y="1264.95522388"/>
      <point x="438.970149254" y="1499.0"/>
      <point x="633" y="1499" type="qcurve" smooth="yes"/>
      <point x="759.865671642" y="1499.0"/>
      <point x="948.835820896" y="1408.79104478"/>
      <point x="1016" y="1317" type="qcurve"/>
      <point x="954" y="1260" type="line"/>
      <point x="891.313432836" y="1340.59701493"/>
      <point x="737.208955224" y="1425.0"/>
      <point x="629" y="1425" type="qcurve" smooth="yes"/>
      <point x="476.014925373" y="1425.0"/>
      <point x="330.0" y="1244.32835821"/>
      <point x="330" y="1110" type="qcurve" smooth="yes"/>
      <point x="330.0" y="1024.17910448"/>
      <point x="378.388059701" y="856.805970149"/>
      <point x="406" y="768" type="qcurve"/>
      <point x="801" y="768" type="line"/>
      <point x="801" y="696" type="line"/>
      <point x="428" y="696" type="line"/>
      <point x="445.164179104" y="634.805970149"/>
      <point x="469.0" y="496.626865672"/>
      <point x="469" y="422" type="qcurve" smooth="yes"/>
      <point x="469.0" y="359.313432836"/>
      <point x="445.134328358" y="253.029850746"/>
      <point x="422" y="209" type="qcurve"/>
      <point x="510.805970149" y="134.373134328"/>
      <point x="681.134328358" y="61.0"/>
      <point x="758" y="61" type="qcurve" smooth="yes"/>
      <point x="860.23880597" y="61.0"/>
      <point x="983.880597015" y="188.597014925"/>
    </contour>
  </outline>
</glyph>
<glyph name="copyright" format="1">
  <advance width="1720.32"/>
  <unicode hex="00A9"/>
  <outline>
    <contour>
      <point x="1051" y="610" type="qcurve"/>
      <point x="1124" y="586" type="line"/>
      <point x="1094.89552239" y="469.582089552"/>
      <point x="965.940298507" y="328.0"/>
      <point x="854" y="328" type="qcurve" smooth="yes"/>
      <point x="718.179104478" y="328.0"/>
      <point x="561.0" y="556.194029851"/>
      <point x="561" y="745" type="qcurve" smooth="yes"/>
      <point x="561" y="748" type="line" smooth="yes"/>
      <point x="561.0" y="936.805970149"/>
      <point x="717.194029851" y="1165.0"/>
      <point x="856" y="1165" type="qcurve" smooth="yes"/>
      <point x="958.23880597" y="1165.0"/>
      <point x="1089.40298507" y="1044.17910448"/>
      <point x="1120" y="930" type="qcurve"/>
      <point x="1044" y="905" type="line"/>
      <point x="1017.13432836" y="999.776119403"/>
      <point x="929.134328358" y="1096.0"/>
      <point x="856" y="1096" type="qcurve" smooth="yes"/>
      <point x="747.791044776" y="1096.0"/>
      <point x="643.0" y="897.76119403"/>
      <point x="643" y="750" type="qcurve" smooth="yes"/>
      <point x="643" y="748" type="line" smooth="yes"/>
      <point x="643.0" y="599.492537313"/>
      <point x="747.791044776" y="399.0"/>
      <point x="856" y="399" type="qcurve" smooth="yes"/>
      <point x="934.358208955" y="399.0"/>
      <point x="1026.37313433" y="510.746268657"/>
    </contour>
    <contour>
      <point x="860" y="1499" type="qcurve" smooth="yes"/>
      <point x="1180.89552239" y="1499.0"/>
      <point x="1622.0" y="1057.89552239"/>
      <point x="1622" y="737" type="qcurve" smooth="yes"/>
      <point x="1622.0" y="416.104477612"/>
      <point x="1180.89552239" y="-25.0"/>
      <point x="860" y="-25" type="qcurve" smooth="yes"/>
      <point x="539.104477612" y="-25.0"/>
      <point x="98.0" y="416.104477612"/>
      <point x="98" y="737" type="qcurve" smooth="yes"/>
      <point x="98.0" y="1057.89552239"/>
      <point x="539.104477612" y="1499.0"/>
    </contour>
    <contour>
      <point x="860" y="37" type="qcurve" smooth="yes"/>
      <point x="1154.7761194" y="37.0"/>
      <point x="1552.0" y="442.223880597"/>
      <point x="1552" y="737" type="qcurve" smooth="yes"/>
      <point x="1552.0" y="1032.52238806"/>
      <point x="1154.7761194" y="1438.0"/>
      <point x="860" y="1438" type="qcurve" smooth="yes"/>
      <point x="565.223880597" y="1438.0"/>
      <point x="168.0" y="1032.52238806"/>
      <point x="168" y="737" type="qcurve" smooth="yes"/>
      <point x="168.0" y="442.223880597"/>
      <point x="565.223880597" y="37.0"/>
    </contour>
  </outline>
</glyph>
<glyph name="ordfeminine" format="1">
  <advance width="757.76"/>
  <unicode hex="00AA"/>
  <outline>
    <contour>
      <point x="672" y="823" type="qcurve"/>
      <point x="672" y="770" type="line"/>
      <point x="606.328358209" y="767.014925373"/>
      <point x="532.71641791" y="832.820895522"/>
      <point x="526" y="897" type="qcurve"/>
      <point x="476.0" y="829.835820896"/>
      <point x="361.686567164" y="766.0"/>
      <point x="299" y="766" type="qcurve" smooth="yes"/>
      <point x="219.895522388" y="766.0"/>
      <point x="102.0" y="860.71641791"/>
      <point x="102" y="954" type="qcurve" smooth="yes"/>
      <point x="102.0" y="1059.97014925"/>
      <point x="318.029850746" y="1197.49253731"/>
      <point x="524" y="1196" type="qcurve"/>
      <point x="524" y="1274" type="line" smooth="yes"/>
      <point x="524.0" y="1353.10447761"/>
      <point x="465.686567164" y="1425.0"/>
      <point x="403" y="1425" type="qcurve" smooth="yes"/>
      <point x="347.029850746" y="1425.0"/>
      <point x="241.223880597" y="1389.58208955"/>
      <point x="186" y="1356" type="qcurve"/>
      <point x="162" y="1411" type="line"/>
      <point x="218.71641791" y="1441.59701493"/>
      <point x="335.134328358" y="1485.0"/>
      <point x="412" y="1485" type="qcurve" smooth="yes"/>
      <point x="506.776119403" y="1485.0"/>
      <point x="596.0" y="1384.71641791"/>
      <point x="596" y="1278" type="qcurve" smooth="yes"/>
      <point x="596" y="920" type="line" smooth="yes"/>
      <point x="596.0" y="879.701492537"/>
      <point x="630.208955224" y="825.985074627"/>
    </contour>
    <contour>
      <point x="305" y="823" type="qcurve" smooth="yes"/>
      <point x="366.194029851" y="823.0"/>
      <point x="478.47761194" y="892.328358209"/>
      <point x="524" y="958" type="qcurve"/>
      <point x="524" y="1147" type="line"/>
      <point x="337.432835821" y="1149.98507463"/>
      <point x="174.0" y="1032.86567164"/>
      <point x="174" y="956" type="qcurve" smooth="yes"/>
      <point x="174.0" y="893.313432836"/>
      <point x="248.28358209" y="823.0"/>
    </contour>
    <contour>
      <point x="645" y="598" type="line"/>
      <point x="645" y="535" type="line"/>
      <point x="109" y="535" type="line"/>
      <point x="109" y="598" type="line"/>
    </contour>
  </outline>
</glyph>
<glyph name="uni00AE" format="1">
  <advance width="1720.32"/>
  <unicode hex="00AE"/>
  <outline>
    <contour>
      <point x="930" y="702" type="qcurve"/>
      <point x="1182" y="336" type="line"/>
      <point x="1083" y="336" type="line"/>
      <point x="836" y="698" type="line"/>
      <point x="707" y="698" type="line"/>
      <point x="707" y="336" type="line"/>
      <point x="623" y="336" type="line"/>
      <point x="623" y="1157" type="line"/>
      <point x="877" y="1157" type="line" smooth="yes"/>
      <point x="1001.62686567" y="1157.0"/>
      <point x="1149.0" y="1039.70149254"/>
      <point x="1149" y="930" type="qcurve" smooth="yes"/>
      <point x="1149.0" y="830.746268657"/>
      <point x="1029.25373134" y="716.179104478"/>
    </contour>
    <contour>
      <point x="860" y="1499" type="qcurve" smooth="yes"/>
      <point x="1180.89552239" y="1499.0"/>
      <point x="1622.0" y="1057.89552239"/>
      <point x="1622" y="737" type="qcurve" smooth="yes"/>
      <point x="1622.0" y="416.104477612"/>
      <point x="1180.89552239" y="-25.0"/>
      <point x="860" y="-25" type="qcurve" smooth="yes"/>
      <point x="539.104477612" y="-25.0"/>
      <point x="98.0" y="416.104477612"/>
      <point x="98" y="737" type="qcurve" smooth="yes"/>
      <point x="98.0" y="1057.89552239"/>
      <point x="539.104477612" y="1499.0"/>
    </contour>
    <contour>
      <point x="860" y="37" type="qcurve" smooth="yes"/>
      <point x="1154.7761194" y="37.0"/>
      <point x="1552.0" y="442.223880597"/>
      <point x="1552" y="737" type="qcurve" smooth="yes"/>
      <point x="1552.0" y="1032.52238806"/>
      <point x="1154.7761194" y="1438.0"/>
      <point x="860" y="1438" type="qcurve" smooth="yes"/>
      <point x="565.223880597" y="1438.0"/>
      <point x="168.0" y="1032.52238806"/>
      <point x="168" y="737" type="qcurve" smooth="yes"/>
      <point x="168.0" y="442.223880597"/>
      <point x="565.223880597" y="37.0"/>
    </contour>
    <contour>
      <point x="877" y="772" type="line" smooth="yes"/>
      <point x="966.552238806" y="772.0"/>
      <point x="1065.0" y="846.656716418"/>
      <point x="1065" y="928" type="qcurve" smooth="yes"/>
      <point x="1065.0" y="1004.11940299"/>
      <point x="966.776119403" y="1085.0"/>
      <point x="872" y="1085" type="qcurve" smooth="yes"/>
      <point x="707" y="1085" type="line"/>
      <point x="707" y="772" type="line"/>
    </contour>
  </outline>
</glyph>
<glyph name="degree" format="1">
  <advance width="819.2"/>
  <unicode hex="00B0"/>
  <outline>
    <contour>
      <point x="410" y="1483" type="qcurve" smooth="yes"/>
      <point x="536.865671642" y="1483.0"/>
      <point x="707.0" y="1316.86567164"/>
      <point x="707" y="1190" type="qcurve" smooth="yes"/>
      <point x="707.0" y="1063.13432836"/>
      <point x="536.865671642" y="897.0"/>
      <point x="410" y="897" type="qcurve" smooth="yes"/>
      <point x="283.134328358" y="897.0"/>
      <point x="113.0" y="1063.13432836"/>
      <point x="113" y="1190" type="qcurve" smooth="yes"/>
      <point x="113.0" y="1316.86567164"/>
      <point x="283.134328358" y="1483.0"/>
    </contour>
    <contour>
      <point x="410" y="963" type="qcurve" smooth="yes"/>
      <point x="504.776119403" y="963.0"/>
      <point x="631.0" y="1090.74626866"/>
      <point x="631" y="1190" type="qcurve" smooth="yes"/>
      <point x="631.0" y="1289.25373134"/>
      <point x="504.776119403" y="1417.0"/>
      <point x="410" y="1417" type="qcurve" smooth="yes"/>
      <point x="315.223880597" y="1417.0"/>
      <point x="188.0" y="1289.25373134"/>
      <point x="188" y="1190" type="qcurve" smooth="yes"/>
      <point x="188.0" y="1090.74626866"/>
      <point x="315.223880597" y="963.0"/>
    </contour>
  </outline>
</glyph>
<glyph name="acute" format="1">
  <advance width="1024.0"/>
  <unicode hex="00B4"/>
  <outline>
    <contour>
      <point x="559" y="1522" type="line"/>
      <point x="696" y="1522" type="line"/>
      <point x="424" y="1212" type="line"/>
      <point x="365" y="1212" type="line"/>
    </contour>
  </outline>
</glyph>
<glyph name="questiondown" format="1">
  <advance width="870.4"/>
  <unicode hex="00BF"/>
  <outline>
    <contour>
      <point x="752" y="274" type="qcurve"/>
      <point x="821" y="244" type="line"/>
      <point x="768.014925373" y="118.626865672"/>
      <point x="581.014925373" y="-25.0"/>
      <point x="434" y="-25" type="qcurve" smooth="yes"/>
      <point x="284.0" y="-25.0"/>
      <point x="102.0" y="160.134328358"/>
      <point x="102" y="287" type="qcurve" smooth="yes"/>
      <point x="102.0" y="399.686567164"/>
      <point x="196.28358209" y="545.805970149"/>
      <point x="303" y="657" type="qcurve" smooth="yes"/>
      <point x="387.328358209" y="744.313432836"/>
      <point x="444.0" y="899.597014925"/>
      <point x="444" y="1069" type="qcurve"/>
      <point x="502" y="1069" type="line"/>
      <point x="504.985074627" y="879.447761194"/>
      <point x="449.76119403" y="699.253731343"/>
      <point x="352" y="600" type="qcurve" smooth="yes"/>
      <point x="269.910447761" y="515.671641791"/>
      <point x="193.0" y="376.820895522"/>
      <point x="193" y="291" type="qcurve" smooth="yes"/>
      <point x="193.0" y="187.268656716"/>
      <point x="323.820895522" y="49.0"/>
      <point x="438" y="49" type="qcurve" smooth="yes"/>
      <point x="560.388059701" y="49.0"/>
      <point x="702.746268657" y="162.805970149"/>
    </contour>
    <contour>
      <point x="473" y="1489" type="qcurve" smooth="yes"/>
      <point x="505.089552239" y="1489.0"/>
      <point x="549.0" y="1445.08955224"/>
      <point x="549" y="1413" type="qcurve" smooth="yes"/>
      <point x="549.0" y="1380.91044776"/>
      <point x="505.089552239" y="1337.0"/>
      <point x="473" y="1337" type="qcurve" smooth="yes"/>
      <point x="440.910447761" y="1337.0"/>
      <point x="397.0" y="1380.91044776"/>
      <point x="397" y="1413" type="qcurve" smooth="yes"/>
      <point x="397.0" y="1445.08955224"/>
      <point x="440.910447761" y="1489.0"/>
    </contour>
  </outline>
</glyph>
<glyph name="multiply" format="1">
  <advance width="1228.8"/>
  <unicode hex="00D7"/>
  <outline>
    <contour>
      <point x="666" y="727" type="line"/>
      <point x="1069" y="328" type="line"/>
      <point x="1014" y="272" type="line"/>
      <point x="614" y="676" type="line"/>
      <point x="215" y="272" type="line"/>
      <point x="160" y="328" type="line"/>
      <point x="563" y="727" type="line"/>
      <point x="160" y="1126" type="line"/>
      <point x="215" y="1182" type="line"/>
      <point x="614" y="778" type="line"/>
      <point x="1014" y="1182" type="line"/>
      <point x="1069" y="1126" type="line"/>
    </contour>
  </outline>
</glyph>
<glyph name="Oslash" format="1">
  <advance width="1245.184"/>
  <unicode hex="00D8"/>
  <outline>
    <contour>
      <point x="1128" y="741" type="qcurve" smooth="yes"/>
      <point x="1128" y="737" type="line" smooth="yes"/>
      <point x="1128.0" y="396.701492537"/>
      <point x="862.552238806" y="-25.0"/>
      <point x="623" y="-25" type="qcurve" smooth="yes"/>
      <point x="537.179104478" y="-25.0"/>
      <point x="392.208955224" y="31.7611940299"/>
      <point x="334" y="84" type="qcurve"/>
      <point x="195" y="-195" type="line"/>
      <point x="117" y="-195" type="line"/>
      <point x="283" y="137" type="line"/>
      <point x="201.656716418" y="234.76119403"/>
      <point x="117.0" y="541.955223881"/>
      <point x="117" y="733" type="qcurve" smooth="yes"/>
      <point x="117" y="737" type="line" smooth="yes"/>
      <point x="117.0" y="1078.04477612"/>
      <point x="382.701492537" y="1499.0"/>
      <point x="623" y="1499" type="qcurve" smooth="yes"/>
      <point x="706.582089552" y="1499.0"/>
      <point x="853.029850746" y="1444.49253731"/>
      <point x="909" y="1393" type="qcurve"/>
      <point x="1051" y="1673" type="line"/>
      <point x="1128" y="1673" type="line"/>
      <point x="961" y="1339" type="line"/>
      <point x="1041.59701493" y="1239.74626866"/>
      <point x="1128.0" y="933.537313433"/>
    </contour>
    <contour>
      <point x="623" y="47" type="qcurve" smooth="yes"/>
      <point x="830.462686567" y="47.0"/>
      <point x="1040.0" y="436.731343284"/>
      <point x="1040" y="733" type="qcurve" smooth="yes"/>
      <point x="1040" y="737" type="line" smooth="yes"/>
      <point x="1040.0" y="894.462686567"/>
      <point x="978.955223881" y="1163.95522388"/>
      <point x="920" y="1255" type="qcurve"/>
      <point x="371" y="158" type="line"/>
      <point x="419.507462687" y="104.268656716"/>
      <point x="544.641791045" y="47.0"/>
    </contour>
    <contour>
      <point x="324" y="219" type="qcurve"/>
      <point x="872" y="1317" type="line"/>
      <point x="824.985074627" y="1370.73134328"/>
      <point x="699.119402985" y="1427.0"/>
      <point x="623" y="1427" type="qcurve" smooth="yes"/>
      <point x="414.791044776" y="1427.0"/>
      <point x="205.0" y="1036.52238806"/>
      <point x="205" y="741" type="qcurve" smooth="yes"/>
      <point x="205" y="737" type="line" smooth="yes"/>
      <point x="205.0" y="579.537313433"/>
      <point x="264.298507463" y="312.28358209"/>
    </contour>
  </outline>
</glyph>
<glyph name="germandbls" format="1">
  <advance width="1159.168"/>
  <unicode hex="00DF"/>
  <outline>
    <contour>
      <point x="655" y="846" type="line"/>
      <point x="809.47761194" y="810.925373134"/>
      <point x="1065.0" y="572.970149254"/>
      <point x="1065" y="367" type="qcurve" smooth="yes"/>
      <point x="1065.0" y="195.358208955"/>
      <point x="856.47761194" y="-20.0"/>
      <point x="702" y="-20" type="qcurve" smooth="yes"/>
      <point x="601.253731343" y="-20.0"/>
      <point x="462.507462687" y="43.4925373134"/>
      <point x="414" y="92" type="qcurve"/>
      <point x="465" y="143" type="line"/>
      <point x="513.507462687" y="95.9850746269"/>
      <point x="620.194029851" y="45.0"/>
      <point x="709" y="45" type="qcurve" smooth="yes"/>
      <point x="821.686567164" y="45.0"/>
      <point x="983.0" y="210.746268657"/>
      <point x="983" y="360" type="qcurve" smooth="yes"/>
      <point x="983.0" y="563.731343284"/>
      <point x="709.805970149" y="800.074626866"/>
      <point x="471" y="815" type="qcurve"/>
      <point x="471" y="877" type="line"/>
      <point x="656.074626866" y="881.47761194"/>
      <point x="842.0" y="1076.14925373"/>
      <point x="842" y="1206" type="qcurve" smooth="yes"/>
      <point x="842.0" y="1325.40298507"/>
      <point x="685.298507463" y="1489.0"/>
      <point x="545" y="1489" type="qcurve" smooth="yes"/>
      <point x="402.462686567" y="1489.0"/>
      <point x="238.0" y="1297.13432836"/>
      <point x="238" y="1124" type="qcurve" smooth="yes"/>
      <point x="238" y="0" type="line"/>
      <point x="156" y="0" type="line"/>
      <point x="156" y="1116" type="line" smooth="yes"/>
      <point x="156.0" y="1314.50746269"/>
      <point x="363.417910448" y="1554.0"/>
      <point x="547" y="1554" type="qcurve" smooth="yes"/>
      <point x="720.880597015" y="1554.0"/>
      <point x="924.0" y="1356.02985075"/>
      <point x="924" y="1212" type="qcurve" smooth="yes"/>
      <point x="924.0" y="1082.14925373"/>
      <point x="768.432835821" y="897.074626866"/>
      <point x="655" y="862" type="qcurve"/>
    </contour>
  </outline>
</glyph>
<glyph name="ae" format="1">
  <advance width="1517.568"/>
  <unicode hex="00E6"/>
  <outline>
    <contour>
      <point x="1434" y="518" type="qcurve" smooth="yes"/>
      <point x="1434" y="514" type="line"/>
      <point x="782" y="514" type="line"/>
      <point x="783.492537313" y="289.373134328"/>
      <point x="958.47761194" y="45.0"/>
      <point x="1104" y="45" type="qcurve" smooth="yes"/>
      <point x="1186.08955224" y="45.0"/>
      <point x="1313.28358209" y="115.313432836"/>
      <point x="1370" y="178" type="qcurve"/>
      <point x="1419" y="131" type="line"/>
      <point x="1360.79104478" y="65.328358209"/>
      <point x="1202.23880597" y="-20.0"/>
      <point x="1100" y="-20" type="qcurve" smooth="yes"/>
      <point x="988.059701493" y="-20.0"/>
      <point x="809.492537313" y="99.5671641791"/>
      <point x="758" y="213" type="qcurve"/>
      <point x="672.179104478" y="103.298507463"/>
      <point x="466.955223881" y="-16.0"/>
      <point x="358" y="-16" type="qcurve" smooth="yes"/>
      <point x="239.343283582" y="-16.0"/>
      <point x="72.0" y="125.671641791"/>
      <point x="72" y="260" type="qcurve" smooth="yes"/>
      <point x="72.0" y="420.447761194"/>
      <point x="396.268656716" y="620.23880597"/>
      <point x="700" y="618" type="qcurve"/>
      <point x="700" y="770" type="line" smooth="yes"/>
      <point x="700.0" y="878.208955224"/>
      <point x="599.76119403" y="991.0"/>
      <point x="502" y="991" type="qcurve" smooth="yes"/>
      <point x="428.119402985" y="991.0"/>
      <point x="278.582089552" y="935.507462687"/>
      <point x="195" y="887" type="qcurve"/>
      <point x="164" y="950" type="line"/>
      <point x="243.104477612" y="994.776119403"/>
      <point x="412.268656716" y="1059.0"/>
      <point x="516" y="1059" type="qcurve" smooth="yes"/>
      <point x="633.910447761" y="1059.0"/>
      <point x="749.313432836" y="926.462686567"/>
      <point x="762" y="819" type="qcurve"/>
      <point x="776" y="819" type="line"/>
      <point x="820.776119403" y="933.925373134"/>
      <point x="970.28358209" y="1069.0"/>
      <point x="1077" y="1069" type="qcurve" smooth="yes"/>
      <point x="1241.92537313" y="1069.0"/>
      <point x="1434.0" y="765.76119403"/>
    </contour>
    <contour>
      <point x="369" y="49" type="qcurve" smooth="yes"/>
      <point x="458.552238806" y="49.0"/>
      <point x="654.402985075" y="162.805970149"/>
      <point x="735" y="274" type="qcurve"/>
      <point x="718.582089552" y="327.731343284"/>
      <point x="700.0" y="451.343283582"/>
      <point x="700" y="520" type="qcurve" smooth="yes"/>
      <point x="700" y="559" type="line"/>
      <point x="415.671641791" y="564.970149254"/>
      <point x="154.0" y="384.895522388"/>
      <point x="154" y="264" type="qcurve" smooth="yes"/>
      <point x="154.0" y="161.76119403"/>
      <point x="275.71641791" y="49.0"/>
    </contour>
    <contour>
      <point x="784" y="580" type="qcurve"/>
      <point x="1350" y="580" type="line"/>
      <point x="1337.31343284" y="780.0"/>
      <point x="1202.37313433" y="1004.0"/>
      <point x="1077" y="1004" type="qcurve" smooth="yes"/>
      <point x="948.641791045" y="1004.0"/>
      <point x="793.701492537" y="765.820895522"/>
    </contour>
  </outline>
</glyph>
<glyph name="ccedilla" format="1">
  <advance width="880.64"/>
  <unicode hex="00E7"/>
  <outline>
    <contour>
      <point x="750" y="256" type="qcurve"/>
      <point x="811" y="227" type="line"/>
      <point x="765.47761194" y="121.776119403"/>
      <point x="612.71641791" y="-12.5373134328"/>
      <point x="506" y="-20" type="qcurve"/>
      <point x="451" y="-115" type="line"/>
      <point x="473.388059701" y="-105.298507463"/>
      <point x="517.388059701" y="-94.0"/>
      <point x="545" y="-94" type="qcurve" smooth="yes"/>
      <point x="607.686567164" y="-94.0"/>
      <point x="682.0" y="-154.791044776"/>
      <point x="682" y="-213" type="qcurve" smooth="yes"/>
      <point x="682.0" y="-304.791044776"/>
      <point x="467.328358209" y="-393.985074627"/>
      <point x="283" y="-391" type="qcurve"/>
      <point x="283" y="-346" type="line"/>
      <point x="450.910447761" y="-343.014925373"/>
      <point x="590.0" y="-276.731343284"/>
      <point x="590" y="-223" type="qcurve" smooth="yes"/>
      <point x="590.0" y="-193.895522388"/>
      <point x="548.059701493" y="-160.0"/>
      <point x="510" y="-160" type="qcurve" smooth="yes"/>
      <point x="476.417910448" y="-160.0"/>
      <point x="423.119402985" y="-172.059701493"/>
      <point x="397" y="-184" type="qcurve"/>
      <point x="358" y="-160" type="line"/>
      <point x="438" y="-18" type="line"/>
      <point x="282.029850746" y="1.40298507463"/>
      <point x="94.0" y="296.865671642"/>
      <point x="94" y="520" type="qcurve" smooth="yes"/>
      <point x="94" y="524" type="line" smooth="yes"/>
      <point x="94.0" y="759.820895522"/>
      <point x="310.134328358" y="1069.0"/>
      <point x="487" y="1069" type="qcurve" smooth="yes"/>
      <point x="604.910447761" y="1069.0"/>
      <point x="755.746268657" y="944.71641791"/>
      <point x="805" y="838" type="qcurve"/>
      <point x="739" y="807" type="line"/>
      <point x="694.970149254" y="897.298507463"/>
      <point x="579.268656716" y="1004.0"/>
      <point x="483" y="1004" type="qcurve" smooth="yes"/>
      <point x="341.208955224" y="1004.0"/>
      <point x="176.0" y="734.71641791"/>
      <point x="176" y="528" type="qcurve" smooth="yes"/>
      <point x="176" y="524" type="line" smooth="yes"/>
      <point x="176.0" y="316.537313433"/>
      <point x="340.223880597" y="45.0"/>
      <point x="485" y="45" type="qcurve" smooth="yes"/>
      <point x="578.28358209" y="45.0"/>
      <point x="702.23880597" y="155.253731343"/>
    </contour>
  </outline>
</glyph>
<glyph name="eth" format="1">
  <advance width="989.184"/>
  <unicode hex="00F0"/>
  <outline>
    <contour>
      <point x="889" y="569" type="qcurve" smooth="yes"/>
      <point x="889" y="565" type="line" smooth="yes"/>
      <point x="889.0" y="297.835820896"/>
      <point x="674.835820896" y="-20.0"/>
      <point x="492" y="-20" type="qcurve" smooth="yes"/>
      <point x="311.402985075" y="-20.0"/>
      <point x="94.0" y="284.925373134"/>
      <point x="94" y="520" type="qcurve" smooth="yes"/>
      <point x="94" y="524" type="line" smooth="yes"/>
      <point x="94.0" y="759.820895522"/>
      <point x="311.402985075" y="1069.0"/>
      <point x="492" y="1069" type="qcurve" smooth="yes"/>
      <point x="601.701492537" y="1069.0"/>
      <point x="758.223880597" y="919.208955224"/>
      <point x="803" y="811" type="qcurve"/>
      <point x="815" y="811" type="line"/>
      <point x="800.074626866" y="971.447761194"/>
      <point x="674.089552239" y="1242.53731343"/>
      <point x="592" y="1350" type="qcurve"/>
      <point x="360" y="1208" type="line"/>
      <point x="360" y="1286" type="line"/>
      <point x="549" y="1401" type="line"/>
      <point x="519.895522388" y="1436.07462687"/>
      <point x="458.089552239" y="1500.89552239"/>
      <point x="426" y="1530" type="qcurve"/>
      <point x="500" y="1561" type="line"/>
      <point x="526.119402985" y="1533.3880597"/>
      <point x="581.880597015" y="1471.58208955"/>
      <point x="608" y="1438" type="qcurve"/>
      <point x="811" y="1561" type="line"/>
      <point x="811" y="1483" type="line"/>
      <point x="651" y="1384" type="line"/>
      <point x="745.776119403" y="1257.13432836"/>
      <point x="889.0" y="871.985074627"/>
    </contour>
    <contour>
      <point x="492" y="45" type="qcurve" smooth="yes"/>
      <point x="641.253731343" y="45.0"/>
      <point x="807.0" y="314.029850746"/>
      <point x="807" y="520" type="qcurve" smooth="yes"/>
      <point x="807" y="524" type="line" smooth="yes"/>
      <point x="807.0" y="732.208955224"/>
      <point x="641.253731343" y="1004.0"/>
      <point x="492" y="1004" type="qcurve" smooth="yes"/>
      <point x="342.0" y="1004.0"/>
      <point x="176.0" y="734.71641791"/>
      <point x="176" y="528" type="qcurve" smooth="yes"/>
      <point x="176" y="524" type="line" smooth="yes"/>
      <point x="176.0" y="316.537313433"/>
      <point x="342.0" y="45.0"/>
    </contour>
  </outline>
</glyph>
<glyph name="divide" format="1">
  <advance width="1228.8"/>
  <unicode hex="00F7"/>
  <outline>
    <contour>
      <point x="614" y="412" type="qcurve" smooth="yes"/>
      <point x="649.820895522" y="412.0"/>
      <point x="696.0" y="365.074626866"/>
      <point x="696" y="330" type="qcurve" smooth="yes"/>
      <point x="696.0" y="294.925373134"/>
      <point x="649.820895522" y="248.0"/>
      <point x="614" y="248" type="qcurve" smooth="yes"/>
      <point x="578.925373134" y="248.0"/>
      <point x="532.0" y="294.925373134"/>
      <point x="532" y="330" type="qcurve" smooth="yes"/>
      <point x="532.0" y="365.074626866"/>
      <point x="578.925373134" y="412.0"/>
    </contour>
    <contour>
      <point x="614" y="1206" type="qcurve" smooth="yes"/>
      <point x="649.820895522" y="1206.0"/>
      <point x="696.0" y="1159.07462687"/>
      <point x="696" y="1124" type="qcurve" smooth="yes"/>
      <point x="696.0" y="1088.92537313"/>
      <point x="649.820895522" y="1042.0"/>
      <point x="614" y="1042" type="qcurve" smooth="yes"/>
      <point x="578.925373134" y="1042.0"/>
      <point x="532.0" y="1088.92537313"/>
      <point x="532" y="1124" type="qcurve" smooth="yes"/>
      <point x="532.0" y="1159.07462687"/>
      <point x="578.925373134" y="1206.0"/>
    </contour>
    <contour>
      <point x="1130" y="768" type="line"/>
      <point x="1130" y="686" type="line"/>
      <point x="98" y="686" type="line"/>
      <point x="98" y="768" type="line"/>
    </contour>
  </outline>
</glyph>
<glyph name="oslash" format="1">
  <advance width="983.04"/>
  <unicode hex="00F8"/>
  <outline>
    <contour>
      <point x="889" y="528" type="qcurve" smooth="yes"/>
      <point x="889" y="524" type="line" smooth="yes"/>
      <point x="889.0" y="288.925373134"/>
      <point x="671.850746269" y="-20.0"/>
      <point x="492" y="-20" type="qcurve" smooth="yes"/>
      <point x="432.298507463" y="-20.0"/>
      <point x="327.029850746" y="14.9104477612"/>
      <point x="283" y="47" type="qcurve"/>
      <point x="160" y="-195" type="line"/>
      <point x="94" y="-195" type="line"/>
      <point x="238" y="88" type="line"/>
      <point x="168.597014925" y="159.641791045"/>
      <point x="94.0" y="384.179104478"/>
      <point x="94" y="520" type="qcurve" smooth="yes"/>
      <point x="94" y="524" type="line" smooth="yes"/>
      <point x="94.0" y="759.820895522"/>
      <point x="311.402985075" y="1069.0"/>
      <point x="492" y="1069" type="qcurve" smooth="yes"/>
      <point x="550.955223881" y="1069.0"/>
      <point x="655.970149254" y="1033.08955224"/>
      <point x="700" y="1001" type="qcurve"/>
      <point x="823" y="1243" type="line"/>
      <point x="889" y="1243" type="line"/>
      <point x="745" y="961" type="line"/>
      <point x="814.402985075" y="888.611940299"/>
      <point x="889.0" y="664.567164179"/>
    </contour>
    <contour>
      <point x="492" y="43" type="qcurve" smooth="yes"/>
      <point x="641.253731343" y="43.0"/>
      <point x="809.0" y="312.537313433"/>
      <point x="809" y="520" type="qcurve" smooth="yes"/>
      <point x="809" y="524" type="line" smooth="yes"/>
      <point x="809.0" y="637.432835821"/>
      <point x="758.014925373" y="826.820895522"/>
      <point x="711" y="891" type="qcurve"/>
      <point x="313" y="111" type="line"/>
      <point x="349.567164179" y="78.9104477612"/>
      <point x="439.76119403" y="43.0"/>
    </contour>
    <contour>
      <point x="272" y="158" type="qcurve"/>
      <point x="668" y="938" type="line"/>
      <point x="632.925373134" y="970.089552239"/>
      <point x="543.492537313" y="1006.0"/>
      <point x="492" y="1006" type="qcurve" smooth="yes"/>
      <point x="342.0" y="1006.0"/>
      <point x="174.0" y="736.208955224"/>
      <point x="174" y="528" type="qcurve" smooth="yes"/>
      <point x="174" y="524" type="line" smooth="yes"/>
      <point x="174.0" y="411.313432836"/>
      <point x="224.985074627" y="222.179104478"/>
    </contour>
  </outline>
</glyph>
<glyph name="lslash" format="1">
  <advance width="577.536"/>
  <unicode hex="0142"/>
  <outline>
    <contour>
      <point x="514" y="895" type="line"/>
      <point x="514" y="817" type="line"/>
      <point x="330" y="729" type="line"/>
      <point x="330" y="0" type="line"/>
      <point x="248" y="0" type="line"/>
      <point x="248" y="692" type="line"/>
      <point x="63" y="604" type="line"/>
      <point x="63" y="682" type="line"/>
      <point x="248" y="768" type="line"/>
      <point x="248" y="1516" type="line"/>
      <point x="330" y="1561" type="line"/>
      <point x="330" y="807" type="line"/>
    </contour>
  </outline>
</glyph>
<glyph name="OE" format="1">
  <advance width="1806.336"/>
  <unicode hex="0152"/>
  <outline>
    <contour>
      <point x="1720" y="74" type="line"/>
      <point x="1720" y="0" type="line"/>
      <point x="754" y="0" type="line" smooth="yes"/>
      <point x="442.059701493" y="0.0"/>
      <point x="117.0" y="391.955223881"/>
      <point x="117" y="733" type="qcurve" smooth="yes"/>
      <point x="117" y="737" type="line" smooth="yes"/>
      <point x="117.0" y="1081.02985075"/>
      <point x="453.552238806" y="1475.0"/>
      <point x="764" y="1475" type="qcurve" smooth="yes"/>
      <point x="1696" y="1475" type="line"/>
      <point x="1696" y="1401" type="line"/>
      <point x="1012" y="1401" type="line"/>
      <point x="1012" y="811" type="line"/>
      <point x="1587" y="811" type="line"/>
      <point x="1587" y="737" type="line"/>
      <point x="1012" y="737" type="line"/>
      <point x="1012" y="74" type="line"/>
    </contour>
    <contour>
      <point x="764" y="74" type="qcurve" smooth="yes"/>
      <point x="924" y="74" type="line"/>
      <point x="924" y="1401" type="line"/>
      <point x="754" y="1401" type="line" smooth="yes"/>
      <point x="498.776119403" y="1401.0"/>
      <point x="207.0" y="1058.91044776"/>
      <point x="207" y="741" type="qcurve" smooth="yes"/>
      <point x="207" y="737" type="line" smooth="yes"/>
      <point x="207.0" y="416.104477612"/>
      <point x="494.597014925" y="74.0"/>
    </contour>
  </outline>
</glyph>
<glyph name="circumflex" format="1">
  <advance width="1024.0"/>
  <unicode hex="02C6"/>
  <outline>
    <contour>
      <point x="557" y="1522" type="line"/>
      <point x="817" y="1202" type="line"/>
      <point x="760" y="1202" type="line"/>
      <point x="510" y="1436" type="line"/>
      <point x="260" y="1202" type="line"/>
      <point x="207" y="1202" type="line"/>
      <point x="467" y="1522" type="line"/>
    </contour>
  </outline>
</glyph>
<glyph name="breve" format="1">
  <advance width="1024.0"/>
  <unicode hex="02D8"/>
  <outline>
    <contour>
      <point x="743" y="1532" type="qcurve"/>
      <point x="807" y="1532" type="line"/>
      <point x="799.537313433" y="1379.01492537"/>
      <point x="643.343283582" y="1206.0"/>
      <point x="512" y="1206" type="qcurve" smooth="yes"/>
      <point x="380.656716418" y="1206.0"/>
      <point x="224.462686567" y="1379.01492537"/>
      <point x="217" y="1532" type="qcurve"/>
      <point x="281" y="1532" type="line"/>
      <point x="295.925373134" y="1408.11940299"/>
      <point x="417.223880597" y="1294.0"/>
      <point x="512" y="1294" type="qcurve" smooth="yes"/>
      <point x="606.776119403" y="1294.0"/>
      <point x="728.074626866" y="1408.11940299"/>
    </contour>
  </outline>
</glyph>
<glyph name="hungarumlaut" format="1">
  <advance width="1024.0"/>
  <unicode hex="02DD"/>
  <outline>
    <contour>
      <point x="379" y="1522" type="line"/>
      <point x="516" y="1522" type="line"/>
      <point x="244" y="1212" type="line"/>
      <point x="184" y="1212" type="line"/>
    </contour>
    <contour>
      <point x="711" y="1522" type="line"/>
      <point x="848" y="1522" type="line"/>
      <point x="575" y="1212" type="line"/>
      <point x="516" y="1212" type="line"/>
    </contour>
  </outline>
</glyph>
<glyph name="emdash" format="1">
  <advance width="2048.0"/>
  <unicode hex="2014"/>
  <outline>
    <contour>
      <point x="1966" y="608" type="line"/>
      <point x="1966" y="530" type="line"/>
      <point x="82" y="530" type="line"/>
      <point x="82" y="608" type="line"/>
    </contour>
  </outline>
</glyph>
<glyph name="quoteright" format="1">
  <advance width="348.16"/>
  <unicode hex="2019"/>
  <unicode hex="02BC"/>
  <outline>
    <contour>
      <point x="166" y="1475" type="line"/>
      <point x="272" y="1475" type="line"/>
      <point x="154" y="1075" type="line"/>
      <point x="94" y="1075" type="line"/>
    </contour>
  </outline>
</glyph>
<glyph name="quotedblleft" format="1">
  <advance width="614.4"/>
  <unicode hex="201C"/>
  <outline>
    <contour>
      <point x="182" y="1475" type="line"/>
      <point x="254" y="1075" type="line"/>
      <point x="195" y="1075" type="line"/>
      <point x="76" y="1475" type="line"/>
    </contour>
    <contour>
      <point x="449" y="1475" type="line"/>
      <point x="520" y="1075" type="line"/>
      <point x="461" y="1075" type="line"/>
      <point x="342" y="1475" type="line"/>
    </contour>
  </outline>
</glyph>
<glyph name="quotedblright" format="1">
  <advance width="614.4"/>
  <unicode hex="201D"/>
  <outline>
    <contour>
      <point x="166" y="1475" type="line"/>
      <point x="272" y="1475" type="line"/>
      <point x="154" y="1075" type="line"/>
      <point x="94" y="1075" type="line"/>
    </contour>
    <contour>
      <point x="432" y="1475" type="line"/>
      <point x="539" y="1475" type="line"/>
      <point x="420" y="1075" type="line"/>
      <point x="360" y="1075" type="line"/>
    </contour>
  </outline>
</glyph>
<glyph name="dagger" format="1">
  <advance width="856.064"/>
  <unicode hex="2020"/>
  <outline>
    <contour>
      <point x="786" y="1055" type="line"/>
      <point x="786" y="971" type="line"/>
      <point x="455" y="993" type="line"/>
      <point x="479" y="711" type="line"/>
      <point x="449" y="0" type="line"/>
      <point x="408" y="0" type="line"/>
      <point x="377" y="711" type="line"/>
      <point x="401" y="993" type="line"/>
      <point x="70" y="971" type="line"/>
      <point x="70" y="1055" type="line"/>
      <point x="401" y="1030" type="line"/>
      <point x="377" y="1475" type="line"/>
      <point x="479" y="1475" type="line"/>
      <point x="455" y="1030" type="line"/>
    </contour>
  </outline>
</glyph>
<glyph name="daggerdbl" format="1">
  <advance width="917.504"/>
  <unicode hex="2021"/>
  <outline>
    <contour>
      <point x="817" y="463" type="line"/>
      <point x="817" y="379" type="line"/>
      <point x="485" y="403" type="line"/>
      <point x="510" y="0" type="line"/>
      <point x="408" y="0" type="line"/>
      <point x="432" y="403" type="line"/>
      <point x="100" y="379" type="line"/>
      <point x="100" y="463" type="line"/>
      <point x="432" y="440" type="line"/>
      <point x="410" y="737" type="line"/>
      <point x="432" y="1034" type="line"/>
      <point x="100" y="1012" type="line"/>
      <point x="100" y="1096" type="line"/>
      <point x="432" y="1071" type="line"/>
      <point x="408" y="1475" type="line"/>
      <point x="510" y="1475" type="line"/>
      <point x="485" y="1071" type="line"/>
      <point x="817" y="1096" type="line"/>
      <point x="817" y="1012" type="line"/>
      <point x="485" y="1034" type="line"/>
      <point x="508" y="737" type="line"/>
      <point x="485" y="440" type="line"/>
    </contour>
  </outline>
</glyph>
<glyph name="ellipsis" format="1">
  <advance width="1126.4"/>
  <unicode hex="2026"/>
  <outline>
    <contour>
      <point x="174" y="129" type="qcurve" smooth="yes"/>
      <point x="204.597014925" y="129.0"/>
      <point x="246.0" y="87.5970149254"/>
      <point x="246" y="57" type="qcurve" smooth="yes"/>
      <point x="246.0" y="26.4029850746"/>
      <point x="204.597014925" y="-14.0"/>
      <point x="174" y="-14" type="qcurve" smooth="yes"/>
      <point x="143.402985075" y="-14.0"/>
      <point x="102.0" y="26.4029850746"/>
      <point x="102" y="57" type="qcurve" smooth="yes"/>
      <point x="102.0" y="87.5970149254"/>
      <point x="143.402985075" y="129.0"/>
    </contour>
    <contour>
      <point x="563" y="129" type="qcurve" smooth="yes"/>
      <point x="593.597014925" y="129.0"/>
      <point x="635.0" y="87.5970149254"/>
      <point x="635" y="57" type="qcurve" smooth="yes"/>
      <point x="635.0" y="26.4029850746"/>
      <point x="593.597014925" y="-14.0"/>
      <point x="563" y="-14" type="qcurve" smooth="yes"/>
      <point x="532.402985075" y="-14.0"/>
      <point x="492.0" y="26.4029850746"/>
      <point x="492" y="57" type="qcurve" smooth="yes"/>
      <point x="492.0" y="87.5970149254"/>
      <point x="532.402985075" y="129.0"/>
    </contour>
    <contour>
      <point x="952" y="129" type="qcurve" smooth="yes"/>
      <point x="982.597014925" y="129.0"/>
      <point x="1024.0" y="87.5970149254"/>
      <point x="1024" y="57" type="qcurve" smooth="yes"/>
      <point x="1024.0" y="26.4029850746"/>
      <point x="982.597014925" y="-14.0"/>
      <point x="952" y="-14" type="qcurve" smooth="yes"/>
      <point x="921.402985075" y="-14.0"/>
      <point x="881.0" y="26.4029850746"/>
      <point x="881" y="57" type="qcurve" smooth="yes"/>
      <point x="881.0" y="87.5970149254"/>
      <point x="921.402985075" y="129.0"/>
    </contour>
  </outline>
</glyph>
<glyph name="guilsinglleft" format="1">
  <advance width="526.336"/>
  <unicode hex="2039"/>
  <outline>
    <contour>
      <point x="172" y="524" type="line"/>
      <point x="453" y="164" type="line"/>
      <point x="383" y="164" type="line"/>
      <point x="66" y="524" type="line"/>
      <point x="383" y="885" type="line"/>
      <point x="453" y="885" type="line"/>
    </contour>
  </outline>
</glyph>
<glyph name="fraction" format="1">
  <advance width="737.28"/>
  <unicode hex="2044"/>
  <outline>
    <contour>
      <point x="715" y="1505" type="line"/>
      <point x="801" y="1505" type="line"/>
      <point x="23" y="-31" type="line"/>
      <point x="-63" y="-31" type="line"/>
    </contour>
  </outline>
</glyph>
<glyph name="uni2117" format="1">
  <advance width="1720.32"/>
  <unicode hex="2117"/>
  <outline>
    <contour>
      <point x="860" y="1499" type="qcurve" smooth="yes"/>
      <point x="1180.89552239" y="1499.0"/>
      <point x="1622.0" y="1057.89552239"/>
      <point x="1622" y="737" type="qcurve" smooth="yes"/>
      <point x="1622.0" y="416.104477612"/>
      <point x="1180.89552239" y="-25.0"/>
      <point x="860" y="-25" type="qcurve" smooth="yes"/>
      <point x="539.104477612" y="-25.0"/>
      <point x="98.0" y="416.104477612"/>
      <point x="98" y="737" type="qcurve" smooth="yes"/>
      <point x="98.0" y="1057.89552239"/>
      <point x="539.104477612" y="1499.0"/>
    </contour>
    <contour>
      <point x="860" y="37" type="qcurve" smooth="yes"/>
      <point x="1154.7761194" y="37.0"/>
      <point x="1552.0" y="442.223880597"/>
      <point x="1552" y="737" type="qcurve" smooth="yes"/>
      <point x="1552.0" y="1032.52238806"/>
      <point x="1154.7761194" y="1438.0"/>
      <point x="860" y="1438" type="qcurve" smooth="yes"/>
      <point x="565.223880597" y="1438.0"/>
      <point x="168.0" y="1032.52238806"/>
      <point x="168" y="737" type="qcurve" smooth="yes"/>
      <point x="168.0" y="442.223880597"/>
      <point x="565.223880597" y="37.0"/>
    </contour>
    <contour>
      <point x="897" y="1151" type="line" smooth="yes"/>
      <point x="1025.35820896" y="1151.0"/>
      <point x="1169.0" y="1023.44776119"/>
      <point x="1169" y="913" type="qcurve" smooth="yes"/>
      <point x="1169.0" y="803.298507463"/>
      <point x="1023.8358209" y="674.0"/>
      <point x="891" y="674" type="qcurve" smooth="yes"/>
      <point x="739" y="674" type="line"/>
      <point x="739" y="330" type="line"/>
      <point x="655" y="330" type="line"/>
      <point x="655" y="1151" type="line"/>
    </contour>
    <contour>
      <point x="897" y="748" type="line" smooth="yes"/>
      <point x="987.298507463" y="748.0"/>
      <point x="1085.0" y="830.402985075"/>
      <point x="1085" y="911" type="qcurve" smooth="yes"/>
      <point x="1085.0" y="989.358208955"/>
      <point x="987.268656716" y="1077.0"/>
      <point x="891" y="1077" type="qcurve" smooth="yes"/>
      <point x="739" y="1077" type="line"/>
      <point x="739" y="748" type="line"/>
    </contour>
  </outline>
</glyph>
<glyph name="trademark" format="1">
  <advance width="1597.44"/>
  <unicode hex="2122"/>
  <outline>
    <contour>
      <point x="1444" y="1475" type="line"/>
      <point x="1444" y="778" type="line"/>
      <point x="1384" y="778" type="line"/>
      <point x="1384" y="1423" type="line"/>
      <point x="1380" y="1423" type="line"/>
      <point x="1143" y="778" type="line"/>
      <point x="1063" y="778" type="line"/>
      <point x="825" y="1423" type="line"/>
      <point x="821" y="1423" type="line"/>
      <point x="821" y="778" type="line"/>
      <point x="758" y="778" type="line"/>
      <point x="758" y="1475" type="line"/>
      <point x="872" y="1475" type="line"/>
      <point x="1098" y="838" type="line"/>
      <point x="1104" y="838" type="line"/>
      <point x="1329" y="1475" type="line"/>
    </contour>
    <contour>
      <point x="612" y="1475" type="line"/>
      <point x="612" y="1419" type="line"/>
      <point x="377" y="1419" type="line"/>
      <point x="377" y="778" type="line"/>
      <point x="311" y="778" type="line"/>
      <point x="311" y="1419" type="line"/>
      <point x="76" y="1419" type="line"/>
      <point x="76" y="1475" type="line"/>
    </contour>
  </outline>
</glyph>
<glyph name="radical" format="1">
  <advance width="1126.4"/>
  <unicode hex="221A"/>
  <outline>
    <contour>
      <point x="965" y="1475" type="line"/>
      <point x="1055" y="1475" type="line"/>
      <point x="504" y="-6" type="line"/>
      <point x="412" y="-6" type="line"/>
      <point x="94" y="696" type="line"/>
      <point x="186" y="696" type="line"/>
      <point x="459" y="72" type="line"/>
    </contour>
  </outline>
</glyph>
<glyph name="apple" format="1">
  <advance width="1024.0"/>
  <unicode hex="F8FF"/>
  <outline>
    <contour>
      <point x="553" y="434" type="line"/>
      <point x="938" y="334" type="line"/>
      <point x="907" y="246" type="line"/>
      <point x="532" y="397" type="line"/>
      <point x="561" y="0" type="line"/>
      <point x="463" y="0" type="line"/>
      <point x="492" y="397" type="line"/>
      <point x="117" y="246" type="line"/>
      <point x="86" y="334" type="line"/>
      <point x="471" y="434" type="line"/>
      <point x="215" y="735" type="line"/>
      <point x="215" y="739" type="line"/>
      <point x="471" y="1040" type="line"/>
      <point x="86" y="1141" type="line"/>
      <point x="117" y="1229" type="line"/>
      <point x="492" y="1077" type="line"/>
      <point x="463" y="1475" type="line"/>
      <point x="561" y="1475" type="line"/>
      <point x="532" y="1077" type="line"/>
      <point x="907" y="1229" type="line"/>
      <point x="938" y="1141" type="line"/>
      <point x="553" y="1040" type="line"/>
      <point x="809" y="739" type="line"/>
      <point x="809" y="735" type="line"/>
    </contour>
    <contour>
      <point x="512" y="455" type="line"/>
      <point x="705" y="737" type="line"/>
      <point x="512" y="1020" type="line"/>
      <point x="319" y="737" type="line"/>
    </contour>
  </outline>
</glyph>
<glyph name="f_f_l" format="1">
  <advance width="1603.584"/>
  <unicode hex="FB04"/>
  <outline>
    <contour>
      <point x="1206" y="1528" type="qcurve"/>
      <point x="1206" y="1446" type="line"/>
      <point x="1172.41791045" y="1466.14925373"/>
      <point x="1088.20895522" y="1489.0"/>
      <point x="1030" y="1489" type="qcurve" smooth="yes"/>
      <point x="961.343283582" y="1489.0"/>
      <point x="883.0" y="1397.7761194"/>
      <point x="883" y="1303" type="qcurve" smooth="yes"/>
      <point x="883" y="1038" type="line"/>
      <point x="1149" y="1038" type="line"/>
      <point x="1149" y="973" type="line"/>
      <point x="883" y="973" type="line"/>
      <point x="883" y="0" type="line"/>
      <point x="801" y="0" type="line"/>
      <point x="801" y="973" type="line"/>
      <point x="338" y="973" type="line"/>
      <point x="338" y="0" type="line"/>
      <point x="256" y="0" type="line"/>
      <point x="256" y="973" type="line"/>
      <point x="39" y="973" type="line"/>
      <point x="39" y="1038" type="line"/>
      <point x="256" y="1038" type="line"/>
      <point x="256" y="1298" type="line" smooth="yes"/>
      <point x="256.0" y="1426.35820896"/>
      <point x="387.52238806" y="1554.0"/>
      <point x="492" y="1554" type="qcurve" smooth="yes"/>
      <point x="550.955223881" y="1554.0"/>
      <point x="627.671641791" y="1539.94029851"/>
      <point x="662" y="1528" type="qcurve"/>
      <point x="662" y="1446" type="line"/>
      <point x="627.671641791" y="1466.14925373"/>
      <point x="543.208955224" y="1489.0"/>
      <point x="485" y="1489" type="qcurve" smooth="yes"/>
      <point x="416.343283582" y="1489.0"/>
      <point x="338.0" y="1397.7761194"/>
      <point x="338" y="1303" type="qcurve" smooth="yes"/>
      <point x="338" y="1038" type="line"/>
      <point x="801" y="1038" type="line"/>
      <point x="801" y="1298" type="line" smooth="yes"/>
      <point x="801.0" y="1426.35820896"/>
      <point x="932.268656716" y="1554.0"/>
      <point x="1036" y="1554" type="qcurve" smooth="yes"/>
      <point x="1095.70149254" y="1554.0"/>
      <point x="1172.41791045" y="1539.94029851"/>
    </contour>
    <contour>
      <point x="1427" y="1561" type="line"/>
      <point x="1427" y="0" type="line"/>
      <point x="1346" y="0" type="line"/>
      <point x="1346" y="1516" type="line"/>
    </contour>
  </outline>
</glyph>
<glyph name="macron" format="1">
  <advance width="1024.0"/>
  <outline>
    <contour>
      <point x="791" y="1382" type="line"/>
      <point x="791" y="1296" type="line"/>
      <point x="233" y="1296" type="line"/>
      <point x="233" y="1382" type="line"/>
    </contour>
  </outline>
</glyph>
